<svg width="478" height="660" viewBox="0 0 478 660" fill="none" xmlns="http://www.w3.org/2000/svg">
<g opacity="0.5">
<path d="M236.812 323.085C224.13 314.68 214.856 302.031 210.656 287.406L182.715 190.13L151.445 81.2634C151.445 81.2634 137.451 32.5426 128.484 1.32446C219.788 68.4725 360.641 172.855 383.414 189.603L476.856 482.176L318.044 376.923L236.812 323.085Z" fill="#F4F4F4"/>
<path d="M-75.5006 149.152L-52.5396 229.09L6.67132 435.233C10.872 449.858 20.145 462.507 32.8273 470.913L272.872 630.003L240.129 526.756L92.3055 428.785C79.6233 420.38 70.3502 407.731 66.1496 393.106L15.2477 215.891L-75.5006 149.152Z" fill="#F4F4F4"/>
<path d="M26.4916 75.238L49.4527 155.177L80.7228 264.044L108.664 361.32C112.864 375.944 122.137 388.594 134.82 396.999L216.052 450.836L374.864 556.09L342.121 452.842L194.298 354.872C181.616 346.466 172.343 333.817 168.142 319.192L117.24 141.978L26.4916 75.238Z" fill="#FDFDFD"/>
<path d="M-75.5006 149.152L-75.2045 148.749C-75.3818 148.618 -75.6237 148.619 -75.8 148.751L-75.5006 149.152ZM272.872 630.003L273.171 630.404L273.456 630.191L273.348 629.852L272.872 630.003ZM-52.5396 229.09L-52.059 228.952L-52.5396 229.09ZM222.925 656.863L222.648 657.28L222.925 656.863ZM237.512 656.44L237.812 656.841L237.512 656.44ZM-115.601 189.341L-116.081 189.479L-115.601 189.341ZM-111.011 175.701L-111.31 175.301L-111.011 175.701ZM26.4916 75.238L26.7878 74.8351C26.6104 74.7047 26.3686 74.7056 26.1923 74.8375L26.4916 75.238ZM374.864 556.09L375.163 556.49L375.448 556.277L375.341 555.939L374.864 556.09ZM49.4527 155.177L49.9332 155.039L49.4527 155.177ZM324.917 582.95L325.193 582.533L324.917 582.95ZM339.505 582.527L339.804 582.927L339.505 582.527ZM-13.6088 115.427L-14.0893 115.565L-13.6088 115.427ZM-9.01873 101.788L-9.31808 101.387L-9.01873 101.788ZM128.484 1.32446L128.78 0.921611C128.603 0.791161 128.361 0.79212 128.184 0.923968L128.484 1.32446ZM476.856 482.176L477.156 482.577L477.441 482.363L477.333 482.024L476.856 482.176ZM151.445 81.2634L151.925 81.1253L151.445 81.2634ZM426.909 509.036L427.185 508.619L426.909 509.036ZM441.497 508.613L441.796 509.014L441.796 509.014L441.497 508.613ZM88.3835 41.5137L88.864 41.3756L88.3835 41.5137ZM92.9735 27.8743L92.6741 27.4738L92.9735 27.8743ZM182.715 190.13L182.234 190.268L182.715 190.13ZM318.044 376.923L318.32 376.506L318.044 376.923ZM80.7228 264.044L81.2033 263.906L80.7228 264.044ZM15.2477 215.891L15.7283 215.753L15.2477 215.891ZM216.052 450.836L216.328 450.419L216.052 450.836ZM383.737 189.985C383.949 189.808 383.977 189.493 383.8 189.281C383.623 189.069 383.308 189.04 383.096 189.217L383.416 189.601L383.737 189.985ZM210.656 287.406L211.136 287.268L210.656 287.406ZM32.8273 470.913L33.1035 470.496L32.8273 470.913ZM66.1496 393.106L65.669 393.244L66.1496 393.106ZM92.3055 428.785L92.5817 428.368L92.3055 428.785ZM168.142 319.192L168.622 319.054L168.142 319.192ZM108.664 361.32L108.183 361.458L108.664 361.32ZM-115.601 189.341L-116.081 189.479L-36.3232 467.158L-35.8426 467.019L-35.3621 466.881L-115.12 189.203L-115.601 189.341ZM-9.68669 502.699L-9.96287 503.116L222.648 657.28L222.925 656.863L223.201 656.446L-9.41049 502.282L-9.68669 502.699ZM272.872 630.003L272.572 629.603L237.213 656.04L237.512 656.44L237.812 656.841L273.171 630.404L272.872 630.003ZM-75.5006 149.152L-75.8 148.751C-87.006 157.129 -102.452 168.678 -111.31 175.301L-111.011 175.701L-110.712 176.102C-101.854 169.479 -86.4073 157.93 -75.2013 149.552L-75.5006 149.152ZM-75.5006 149.152L-75.9812 149.29C-71.4978 164.899 -65.7575 184.883 -61.1381 200.966C-58.8284 209.007 -56.7989 216.073 -55.3468 221.128C-54.6208 223.656 -54.0391 225.681 -53.6389 227.074C-53.4389 227.771 -53.2842 228.309 -53.1794 228.674C-53.1271 228.856 -53.0873 228.995 -53.0605 229.088C-53.0471 229.135 -53.0371 229.169 -53.0303 229.193C-53.0269 229.205 -53.0244 229.214 -53.0227 229.22C-53.0218 229.223 -53.0212 229.225 -53.0208 229.226C-53.0205 229.227 -53.0204 229.228 -53.0203 229.228C-53.0202 229.228 -53.0201 229.229 -52.5396 229.09C-52.059 228.952 -52.0591 228.952 -52.0592 228.952C-52.0593 228.951 -52.0595 228.951 -52.0597 228.95C-52.0601 228.949 -52.0607 228.946 -52.0616 228.944C-52.0633 228.938 -52.0658 228.929 -52.0692 228.917C-52.076 228.893 -52.0861 228.858 -52.0995 228.812C-52.1262 228.719 -52.1661 228.58 -52.2184 228.398C-52.3231 228.033 -52.4778 227.495 -52.6779 226.798C-53.078 225.405 -53.6597 223.38 -54.3857 220.852C-55.8378 215.797 -57.8673 208.731 -60.177 200.69C-64.7964 184.607 -70.5367 164.623 -75.0201 149.013L-75.5006 149.152ZM-52.5396 229.09L-53.0201 229.229L6.19079 435.371L6.67132 435.233L7.15185 435.095L-52.059 228.952L-52.5396 229.09ZM222.925 656.863L222.648 657.28C227.282 660.351 233.353 660.175 237.812 656.841L237.512 656.44L237.213 656.04C233.091 659.122 227.482 659.284 223.201 656.446L222.925 656.863ZM-115.601 189.341L-115.12 189.203C-116.516 184.345 -114.766 179.133 -110.712 176.102L-111.011 175.701L-111.31 175.301C-115.698 178.581 -117.591 184.222 -116.081 189.479L-115.601 189.341ZM374.864 556.09L374.565 555.689L339.205 582.126L339.505 582.527L339.804 582.927L375.163 556.49L374.864 556.09ZM26.4916 75.238L26.1923 74.8375C14.9863 83.2158 -0.460239 94.7647 -9.31808 101.387L-9.01873 101.788L-8.71939 102.188C0.138451 95.5656 15.585 84.0168 26.791 75.6385L26.4916 75.238ZM26.4916 75.238L26.0111 75.3761C30.4945 90.9851 36.2348 110.97 40.8542 127.052C43.1639 135.094 45.1934 142.159 46.6454 147.215C47.3715 149.742 47.9531 151.767 48.3533 153.161C48.5534 153.857 48.7081 154.396 48.8128 154.76C48.8651 154.942 48.905 155.081 48.9317 155.174C48.945 155.221 48.9553 155.256 48.962 155.28C48.9653 155.291 48.968 155.301 48.9696 155.306C48.9703 155.309 48.9712 155.312 48.9715 155.313C48.9717 155.313 48.9719 155.314 48.972 155.314C48.9721 155.315 48.9722 155.315 49.4527 155.177C49.9332 155.039 49.9332 155.039 49.9331 155.038C49.933 155.038 49.9328 155.037 49.9326 155.037C49.9319 155.034 49.9317 155.034 49.9307 155.03C49.929 155.024 49.9264 155.015 49.923 155.003C49.9163 154.98 49.9062 154.945 49.8928 154.898C49.8661 154.805 49.8262 154.666 49.7739 154.484C49.6692 154.12 49.5145 153.581 49.3144 152.884C48.9142 151.491 48.3325 149.466 47.6065 146.938C46.1545 141.883 44.125 134.817 41.8152 126.776C37.1958 110.694 31.4556 90.7089 26.9721 75.0999L26.4916 75.238ZM324.917 582.95L324.641 583.366C329.275 586.438 335.345 586.261 339.804 582.927L339.505 582.527L339.205 582.126C335.084 585.208 329.474 585.37 325.193 582.533L324.917 582.95ZM-13.6088 115.427L-13.1282 115.289C-14.5235 110.432 -12.774 105.22 -8.71939 102.188L-9.01873 101.788L-9.31808 101.387C-13.7057 104.668 -15.5992 110.309 -14.0893 115.565L-13.6088 115.427ZM476.856 482.176L477.333 482.024L383.891 189.451L383.414 189.603L382.938 189.755L476.38 482.328L476.856 482.176ZM383.414 189.603L383.71 189.2C372.325 180.826 331.419 150.545 281.945 113.962C232.472 77.379 174.432 34.4961 128.78 0.921611L128.484 1.32446L128.188 1.7273C173.839 35.3009 231.878 78.1832 281.351 114.766C330.823 151.348 371.731 181.631 383.118 190.006L383.414 189.603ZM476.856 482.176L476.557 481.776L441.197 508.213L441.497 508.613L441.796 509.014L477.156 482.577L476.856 482.176ZM128.484 1.32446L128.184 0.923968C116.978 9.30229 101.532 20.8511 92.6741 27.4738L92.9735 27.8743L93.2728 28.2748C102.131 21.6521 117.577 10.1033 128.783 1.72495L128.484 1.32446ZM128.484 1.32446L128.003 1.46253C132.487 17.0716 138.227 37.0563 142.846 53.1388C145.156 61.18 147.186 68.2457 148.638 73.301C149.364 75.8287 149.945 77.8538 150.346 79.247C150.546 79.9436 150.7 80.4822 150.805 80.8467C150.857 81.0289 150.897 81.1676 150.924 81.2607C150.937 81.3073 150.947 81.3425 150.954 81.366C150.958 81.3778 150.96 81.3867 150.962 81.3926C150.963 81.3954 150.963 81.3979 150.964 81.3992C150.964 81.4 150.964 81.4005 150.964 81.4009C150.964 81.4013 150.964 81.4015 151.445 81.2634C151.925 81.1253 151.925 81.1251 151.925 81.1247C151.925 81.1244 151.925 81.1238 151.925 81.1231C151.924 81.1214 151.924 81.1195 151.923 81.1164C151.921 81.1104 151.919 81.1017 151.915 81.0899C151.908 81.0663 151.898 81.0312 151.885 80.9846C151.858 80.8914 151.818 80.7527 151.766 80.5705C151.661 80.2061 151.507 79.6674 151.307 78.9708C150.906 77.5777 150.325 75.5526 149.599 73.0249C148.147 67.9695 146.117 60.9039 143.807 52.8626C139.188 36.7802 133.448 16.7954 128.964 1.18638L128.484 1.32446ZM426.909 509.036L426.633 509.453C431.267 512.524 437.337 512.348 441.796 509.014L441.497 508.613L441.197 508.213C437.076 511.294 431.466 511.457 427.185 508.619L426.909 509.036ZM88.3835 41.5137L88.864 41.3756C87.4688 36.5181 89.2182 31.3063 93.2728 28.2748L92.9735 27.8743L92.6741 27.4738C88.2865 30.7543 86.393 36.395 87.903 41.6518L88.3835 41.5137ZM32.8273 470.913L32.5511 471.329L272.596 630.42L272.872 630.003L273.148 629.587L33.1035 470.496L32.8273 470.913ZM151.445 81.2634L150.964 81.4015L182.234 190.268L182.715 190.13L183.196 189.992L151.925 81.1253L151.445 81.2634ZM182.715 190.13L182.234 190.268L210.175 287.544L210.656 287.406L211.136 287.268L183.196 189.992L182.715 190.13ZM117.24 141.978L117.536 141.575C85.9915 118.376 54.2677 95.0448 26.7878 74.8351L26.4916 75.238L26.1954 75.6408C53.6753 95.8505 85.3991 119.181 116.944 142.38L117.24 141.978ZM88.3835 41.5137L87.903 41.6518L116.759 142.116L117.24 141.978L117.721 141.839L88.864 41.3756L88.3835 41.5137ZM236.812 323.085L236.536 323.502L317.768 377.339L318.044 376.923L318.32 376.506L237.088 322.669L236.812 323.085ZM318.044 376.923L317.768 377.339L476.58 482.593L476.856 482.176L477.132 481.759L318.32 376.506L318.044 376.923ZM374.864 556.09L375.341 555.939L342.597 452.691L342.121 452.842L341.644 452.993L374.388 556.241L374.864 556.09ZM342.121 452.842L341.845 453.259L426.633 509.453L426.909 509.036L427.185 508.619L342.397 452.425L342.121 452.842ZM194.298 354.872L194.022 355.288L341.845 453.259L342.121 452.842L342.397 452.425L194.574 354.455L194.298 354.872ZM117.24 141.978L116.759 142.116L167.661 319.331L168.142 319.192L168.622 319.054L117.721 141.839L117.24 141.978ZM49.4527 155.177L48.9722 155.315L80.2423 264.182L80.7228 264.044L81.2033 263.906L49.9332 155.039L49.4527 155.177ZM80.7228 264.044L80.2423 264.182L108.183 361.458L108.664 361.32L109.144 361.182L81.2033 263.906L80.7228 264.044ZM15.2477 215.891L15.5439 215.488C-16.0007 192.289 -47.7245 168.958 -75.2045 148.749L-75.5006 149.152L-75.7969 149.554C-48.3169 169.764 -16.5931 193.095 14.9516 216.294L15.2477 215.891ZM-13.6088 115.427L-14.0893 115.565L14.7672 216.029L15.2477 215.891L15.7283 215.753L-13.1282 115.289L-13.6088 115.427ZM15.2477 215.891L14.7672 216.029L65.669 393.244L66.1496 393.106L66.6301 392.968L15.7283 215.753L15.2477 215.891ZM134.82 396.999L134.543 397.416L215.776 451.253L216.052 450.836L216.328 450.419L135.096 396.582L134.82 396.999ZM216.052 450.836L215.776 451.253L374.588 556.507L374.864 556.09L375.14 555.673L216.328 450.419L216.052 450.836ZM272.872 630.003L273.348 629.852L240.605 526.605L240.129 526.756L239.652 526.907L272.395 630.155L272.872 630.003ZM92.3055 428.785L92.0293 429.202L239.852 527.173L240.129 526.756L240.405 526.339L92.5817 428.368L92.3055 428.785ZM240.129 526.756L239.852 527.173L324.641 583.366L324.917 582.95L325.193 582.533L240.405 526.339L240.129 526.756ZM-75.5006 149.152L-75.9812 149.29L-53.0201 229.229L-52.5396 229.09L-52.059 228.952L-75.0201 149.013L-75.5006 149.152ZM15.2477 215.891L15.5439 215.488L-75.2045 148.749L-75.5006 149.152L-75.7969 149.554L14.9516 216.294L15.2477 215.891ZM-75.5006 149.152L-75.8 148.751L-111.31 175.301L-111.011 175.701L-110.712 176.102L-75.2013 149.552L-75.5006 149.152ZM49.4527 155.177L49.9332 155.039L26.9721 75.0999L26.4916 75.238L26.0111 75.3761L48.9722 155.315L49.4527 155.177ZM26.4916 75.238L26.1923 74.8375L-9.31808 101.387L-9.01873 101.788L-8.71939 102.188L26.791 75.6385L26.4916 75.238ZM128.484 1.32446L128.184 0.923968L92.6741 27.4738L92.9735 27.8743L93.2728 28.2748L128.783 1.72495L128.484 1.32446ZM151.445 81.2634L151.925 81.1253L128.964 1.18638L128.484 1.32446L128.003 1.46253L150.964 81.4015L151.445 81.2634ZM117.24 141.978L117.536 141.575L26.7878 74.8351L26.4916 75.238L26.1954 75.6408L116.944 142.38L117.24 141.978ZM383.414 189.603L383.735 189.987L383.737 189.985L383.416 189.601L383.096 189.217L383.094 189.219L383.414 189.603ZM210.656 287.406L210.175 287.544C214.409 302.283 223.754 315.031 236.536 323.502L236.812 323.085L237.088 322.669C224.505 314.329 215.304 301.779 211.136 287.268L210.656 287.406ZM6.67132 435.233L6.19079 435.371C10.4243 450.11 19.7698 462.858 32.5511 471.329L32.8273 470.913L33.1035 470.496C20.5203 462.156 11.3197 449.606 7.15185 435.095L6.67132 435.233ZM66.1496 393.106L65.669 393.244C69.9025 407.983 79.248 420.731 92.0293 429.202L92.3055 428.785L92.5817 428.368C79.9985 420.029 70.798 407.478 66.6301 392.968L66.1496 393.106ZM194.298 354.872L194.574 354.455C181.991 346.115 172.79 333.565 168.622 319.054L168.142 319.192L167.661 319.331C171.895 334.069 181.24 346.818 194.022 355.288L194.298 354.872ZM108.664 361.32L108.183 361.458C112.417 376.197 121.762 388.945 134.543 397.416L134.82 396.999L135.096 396.582C122.513 388.243 113.312 375.692 109.144 361.182L108.664 361.32ZM-35.8426 467.019L-36.3232 467.158C-32.0897 481.897 -22.7442 494.645 -9.96287 503.116L-9.68669 502.699L-9.41049 502.282C-21.9936 493.942 -31.1942 481.392 -35.3621 466.881L-35.8426 467.019Z" fill="#2A2A2A" fill-opacity="0.1"/>
</g>
</svg>
