<svg width="548" height="702" viewBox="0 0 548 702" fill="none" xmlns="http://www.w3.org/2000/svg">
<g opacity="0.5">
<path d="M455.266 259.642C442.584 251.237 433.311 238.587 429.11 223.963L390.737 90.366L349.997 -51.4704C349.997 -51.4704 331.765 -114.946 320.082 -155.618C439.037 -68.1348 622.547 67.8588 652.216 89.6788L773.956 470.856L567.05 333.727L455.266 259.642Z" fill="#F4F4F4"/>
<path d="M54.3229 36.9771L84.2375 141.125L163.351 416.558C167.552 431.183 176.825 443.832 189.507 452.237L508.197 663.451L465.538 528.936L266.998 397.352C254.315 388.947 245.042 376.297 240.842 361.673L172.554 123.928L54.3229 36.9771Z" fill="#F4F4F4"/>
<path d="M187.203 -59.3206L217.117 44.8272L257.857 186.664L296.231 320.26C300.431 334.885 309.704 347.534 322.387 355.94L434.17 430.024L641.077 567.153L598.418 432.638L399.877 301.054C387.195 292.649 377.922 280 373.721 265.375L305.433 27.6306L187.203 -59.3206Z" fill="#FDFDFD"/>
<path d="M54.3229 36.9771L54.6191 36.5743C54.4417 36.4439 54.1999 36.4448 54.0236 36.5766L54.3229 36.9771ZM508.197 663.451L508.496 663.851L508.781 663.639L508.674 663.3L508.197 663.451ZM84.2375 141.125L84.7181 140.987L84.2375 141.125ZM443.124 698.445L442.848 698.862L443.124 698.445ZM462.129 697.894L462.429 698.295L462.129 697.894ZM2.07852 89.3374L1.59799 89.4755L2.07852 89.3374ZM8.05859 71.5674L7.75925 71.1669L8.05859 71.5674ZM187.203 -59.3206L187.499 -59.7234C187.321 -59.8539 187.08 -59.8529 186.903 -59.721L187.203 -59.3206ZM641.077 567.153L641.376 567.554L641.661 567.341L641.553 567.002L641.077 567.153ZM217.117 44.8272L217.598 44.6891L217.117 44.8272ZM576.004 602.147L576.28 601.731L576.004 602.147ZM595.009 601.597L595.308 601.997L595.009 601.597ZM134.958 -6.96027L134.478 -6.82219L134.958 -6.96027ZM140.938 -24.7303L140.639 -25.1308L140.938 -24.7303ZM320.082 -155.618L320.379 -156.021C320.201 -156.151 319.959 -156.15 319.783 -156.019L320.082 -155.618ZM773.956 470.856L774.256 471.256L774.541 471.043L774.433 470.703L773.956 470.856ZM349.997 -51.4704L350.477 -51.6085L349.997 -51.4704ZM708.883 505.85L709.16 505.433L708.883 505.85ZM727.889 505.299L728.188 505.7L727.889 505.299ZM267.838 -103.258L268.318 -103.396L267.838 -103.258ZM273.818 -121.028L273.519 -121.428L273.818 -121.028ZM390.737 90.366L390.256 90.504L390.737 90.366ZM567.05 333.727L567.326 333.31L567.05 333.727ZM257.857 186.664L258.338 186.526L257.857 186.664ZM172.554 123.928L173.034 123.79L172.554 123.928ZM434.17 430.024L434.446 429.608L434.17 430.024ZM652.539 90.0605C652.751 89.8834 652.78 89.5681 652.603 89.3561C652.426 89.1441 652.11 89.1158 651.899 89.2928L652.219 89.6766L652.539 90.0605ZM429.11 223.963L428.63 224.101L429.11 223.963ZM455.266 259.642L454.99 260.059L455.266 259.642ZM163.351 416.558L162.87 416.696L163.351 416.558ZM189.507 452.237L189.231 452.654L189.507 452.237ZM240.842 361.673L241.322 361.535L240.842 361.673ZM266.998 397.352L267.274 396.935L266.998 397.352ZM399.877 301.054L400.153 300.637L399.877 301.054ZM296.231 320.26L295.75 320.398L296.231 320.26ZM322.387 355.94L322.11 356.356L322.387 355.94ZM107.962 457.97L107.481 458.108L107.962 457.97ZM2.07852 89.3374L1.59799 89.4755L107.481 458.108L107.962 457.97L108.442 457.832L2.55906 89.1993L2.07852 89.3374ZM134.118 493.65L133.842 494.066L442.848 698.862L443.124 698.445L443.4 698.028L134.394 493.233L134.118 493.65ZM508.197 663.451L507.898 663.05L461.83 697.494L462.129 697.894L462.429 698.295L508.496 663.851L508.197 663.451ZM54.3229 36.9771L54.0236 36.5766C39.4239 47.4923 19.2996 62.5386 7.75925 71.1669L8.05859 71.5674L8.35794 71.9679C19.8983 63.3395 40.0226 48.2933 54.6222 37.3776L54.3229 36.9771ZM54.3229 36.9771L53.8424 37.1152C59.6836 57.4513 67.1622 83.4883 73.1806 104.441C76.1898 114.918 78.8339 124.123 80.7257 130.709C81.6716 134.003 82.4294 136.641 82.9508 138.456C83.2115 139.364 83.413 140.065 83.5494 140.54C83.6176 140.778 83.6695 140.958 83.7044 141.08C83.7218 141.14 83.7349 141.186 83.7438 141.217C83.7481 141.232 83.7515 141.244 83.7537 141.251C83.7547 141.255 83.7557 141.258 83.7562 141.26C83.7565 141.261 83.7567 141.262 83.7568 141.262C83.7569 141.263 83.757 141.263 84.2375 141.125C84.7181 140.987 84.718 140.987 84.7179 140.986C84.7177 140.986 84.7175 140.985 84.7172 140.984C84.7166 140.982 84.7159 140.979 84.7148 140.975C84.7125 140.967 84.7093 140.956 84.7048 140.941C84.696 140.91 84.6828 140.864 84.6654 140.803C84.6306 140.682 84.5787 140.501 84.5105 140.264C84.3741 139.789 84.1725 139.087 83.9119 138.18C83.3905 136.365 82.6327 133.726 81.6868 130.433C79.7949 123.847 77.1508 114.641 74.1417 104.165C68.1233 83.2121 60.6446 57.1752 54.8034 36.8391L54.3229 36.9771ZM84.2375 141.125L83.757 141.263L162.87 416.696L163.351 416.558L163.831 416.42L84.7181 140.987L84.2375 141.125ZM443.124 698.445L442.848 698.862C448.832 702.828 456.67 702.6 462.429 698.295L462.129 697.894L461.83 697.494C456.409 701.547 449.031 701.76 443.4 698.028L443.124 698.445ZM2.07852 89.3374L2.55906 89.1993C0.723899 82.8102 3.025 75.9551 8.35794 71.9679L8.05859 71.5674L7.75925 71.1669C2.09333 75.4031 -0.351825 82.6871 1.59799 89.4755L2.07852 89.3374ZM641.077 567.153L640.778 566.753L594.71 601.196L595.009 601.597L595.308 601.997L641.376 567.554L641.077 567.153ZM187.203 -59.3206L186.903 -59.721C172.304 -48.8054 152.179 -33.7591 140.639 -25.1308L140.938 -24.7303L141.238 -24.3298C152.778 -32.9581 172.902 -48.0044 187.502 -58.9201L187.203 -59.3206ZM187.203 -59.3206L186.722 -59.1825C192.563 -38.8464 200.042 -12.8094 206.06 8.1435C209.07 18.62 211.714 27.8254 213.605 34.4117C214.551 37.7049 215.309 40.3433 215.831 42.1584C216.091 43.0659 216.293 43.7677 216.429 44.2425C216.497 44.4799 216.549 44.6606 216.584 44.782C216.602 44.8427 216.615 44.8884 216.624 44.9191C216.628 44.9352 216.631 44.9453 216.633 44.9537C216.635 44.9584 216.635 44.9596 216.636 44.9624C216.636 44.9633 216.636 44.9641 216.637 44.9646C216.637 44.965 216.637 44.9653 217.117 44.8272C217.598 44.6891 217.598 44.6889 217.598 44.6884C217.597 44.6879 217.597 44.6872 217.597 44.6862C217.597 44.6855 217.595 44.6802 217.594 44.6776C217.592 44.6702 217.589 44.6579 217.585 44.643C217.576 44.6126 217.563 44.5662 217.545 44.5058C217.51 44.3844 217.458 44.2039 217.39 43.9664C217.254 43.4915 217.052 42.7898 216.792 41.8822C216.27 40.0671 215.512 37.4287 214.566 34.1356C212.675 27.5492 210.031 18.3438 207.021 7.86733C201.003 -13.0856 193.524 -39.1225 187.683 -59.4586L187.203 -59.3206ZM576.004 602.147L575.727 602.564C581.711 606.53 589.55 606.302 595.308 601.997L595.009 601.597L594.71 601.196C589.289 605.249 581.911 605.463 576.28 601.731L576.004 602.147ZM134.958 -6.96027L135.439 -7.09835C133.604 -13.4874 135.905 -20.3426 141.238 -24.3298L140.938 -24.7303L140.639 -25.1308C134.973 -20.8945 132.528 -13.6105 134.478 -6.82219L134.958 -6.96027ZM773.956 470.856L774.433 470.703L652.693 89.5266L652.216 89.6788L651.74 89.831L773.48 471.008L773.956 470.856ZM652.216 89.6788L652.513 89.276C637.678 78.3664 584.385 38.9139 519.928 -8.74803C455.473 -56.4094 379.856 -112.279 320.379 -156.021L320.082 -155.618L319.786 -155.215C379.263 -111.474 454.878 -55.6052 519.334 -7.94388C583.789 39.7168 637.085 79.1711 651.92 90.0816L652.216 89.6788ZM773.956 470.856L773.657 470.455L727.589 504.899L727.889 505.299L728.188 505.7L774.256 471.256L773.956 470.856ZM320.082 -155.618L319.783 -156.019C305.183 -145.103 285.059 -130.057 273.519 -121.428L273.818 -121.028L274.117 -120.627C285.658 -129.256 305.782 -144.302 320.382 -155.218L320.082 -155.618ZM320.082 -155.618L319.602 -155.48C325.443 -135.144 332.922 -109.107 338.94 -88.1541C341.949 -77.6777 344.593 -68.4722 346.485 -61.8859C347.431 -58.5927 348.189 -55.9543 348.71 -54.1392C348.971 -53.2317 349.172 -52.5299 349.309 -52.0551C349.377 -51.8177 349.429 -51.637 349.464 -51.5157C349.481 -51.4549 349.494 -51.4092 349.503 -51.3785C349.508 -51.3631 349.511 -51.3516 349.513 -51.3439C349.514 -51.3396 349.515 -51.3376 349.516 -51.3352C349.516 -51.3343 349.516 -51.3335 349.516 -51.333C349.516 -51.3326 349.516 -51.3323 349.997 -51.4704C350.477 -51.6085 350.477 -51.6087 350.477 -51.6092C350.477 -51.6097 350.477 -51.6104 350.477 -51.6114C350.476 -51.6129 350.475 -51.6166 350.474 -51.6201C350.472 -51.6279 350.469 -51.6391 350.464 -51.6546C350.455 -51.6852 350.442 -51.7312 350.425 -51.7918C350.39 -51.9131 350.338 -52.0939 350.27 -52.3313C350.133 -52.8061 349.932 -53.5078 349.671 -54.4154C349.15 -56.2305 348.392 -58.8689 347.446 -62.162C345.554 -68.7484 342.91 -77.9538 339.901 -88.4303C333.883 -109.383 326.404 -135.42 320.563 -155.756L320.082 -155.618ZM708.883 505.85L708.607 506.267C714.591 510.232 722.43 510.005 728.188 505.7L727.889 505.299L727.589 504.899C722.168 508.952 714.791 509.165 709.16 505.433L708.883 505.85ZM267.838 -103.258L268.318 -103.396C266.483 -109.785 268.784 -116.64 274.117 -120.627L273.818 -121.028L273.519 -121.428C267.853 -117.192 265.408 -109.908 267.357 -103.12L267.838 -103.258ZM189.507 452.237L189.231 452.654L507.921 663.868L508.197 663.451L508.473 663.034L189.783 451.82L189.507 452.237ZM349.997 -51.4704L349.516 -51.3323L390.256 90.504L390.737 90.366L391.218 90.2279L350.477 -51.6085L349.997 -51.4704ZM390.737 90.366L390.256 90.504L428.63 224.101L429.11 223.963L429.591 223.825L391.218 90.2279L390.737 90.366ZM305.433 27.6306L305.73 27.2277C264.632 -2.99701 223.301 -33.3933 187.499 -59.7234L187.203 -59.3206L186.906 -58.9177C222.708 -32.5876 264.039 -2.19131 305.137 28.0334L305.433 27.6306ZM267.838 -103.258L267.357 -103.12L304.953 27.7687L305.433 27.6306L305.914 27.4925L268.318 -103.396L267.838 -103.258ZM455.266 259.642L454.99 260.059L566.773 334.144L567.05 333.727L567.326 333.31L455.542 259.225L455.266 259.642ZM567.05 333.727L566.773 334.144L773.68 471.272L773.956 470.856L774.233 470.439L567.326 333.31L567.05 333.727ZM641.077 567.153L641.553 567.002L598.894 432.487L598.418 432.638L597.941 432.789L640.6 567.304L641.077 567.153ZM598.418 432.638L598.141 433.055L708.607 506.267L708.883 505.85L709.16 505.433L598.694 432.221L598.418 432.638ZM399.877 301.054L399.601 301.471L598.141 433.055L598.418 432.638L598.694 432.221L400.153 300.637L399.877 301.054ZM305.433 27.6306L304.953 27.7687L373.241 265.513L373.721 265.375L374.202 265.237L305.914 27.4925L305.433 27.6306ZM217.117 44.8272L216.637 44.9653L257.377 186.802L257.857 186.664L258.338 186.526L217.598 44.6891L217.117 44.8272ZM257.857 186.664L257.377 186.802L295.75 320.398L296.231 320.26L296.711 320.122L258.338 186.526L257.857 186.664ZM172.554 123.928L172.85 123.525C131.752 93.3006 90.4211 62.9044 54.6191 36.5743L54.3229 36.9771L54.0267 37.38C89.8287 63.71 131.16 94.1064 172.257 124.331L172.554 123.928ZM134.958 -6.96027L134.478 -6.82219L172.073 124.066L172.554 123.928L173.034 123.79L135.439 -7.09835L134.958 -6.96027ZM172.554 123.928L172.073 124.066L240.361 361.811L240.842 361.673L241.322 361.535L173.034 123.79L172.554 123.928ZM322.387 355.94L322.11 356.356L433.894 430.441L434.17 430.024L434.446 429.608L322.663 355.523L322.387 355.94ZM434.17 430.024L433.894 430.441L640.801 567.57L641.077 567.153L641.353 566.736L434.446 429.608L434.17 430.024ZM508.197 663.451L508.674 663.3L466.015 528.784L465.538 528.936L465.061 529.087L507.721 663.602L508.197 663.451ZM266.998 397.352L266.721 397.769L465.262 529.352L465.538 528.936L465.814 528.519L267.274 396.935L266.998 397.352ZM465.538 528.936L465.262 529.352L575.727 602.564L576.004 602.147L576.28 601.731L465.814 528.519L465.538 528.936ZM54.3229 36.9771L53.8424 37.1152L83.757 141.263L84.2375 141.125L84.7181 140.987L54.8034 36.8391L54.3229 36.9771ZM172.554 123.928L172.85 123.525L54.6191 36.5743L54.3229 36.9771L54.0267 37.38L172.257 124.331L172.554 123.928ZM54.3229 36.9771L54.0236 36.5766L7.75925 71.1669L8.05859 71.5674L8.35794 71.9679L54.6222 37.3776L54.3229 36.9771ZM217.117 44.8272L217.598 44.6891L187.683 -59.4586L187.203 -59.3206L186.722 -59.1825L216.637 44.9653L217.117 44.8272ZM187.203 -59.3206L186.903 -59.721L140.639 -25.1308L140.938 -24.7303L141.238 -24.3298L187.502 -58.9201L187.203 -59.3206ZM320.082 -155.618L319.783 -156.019L273.519 -121.428L273.818 -121.028L274.117 -120.627L320.382 -155.218L320.082 -155.618ZM349.997 -51.4704L350.477 -51.6085L320.563 -155.756L320.082 -155.618L319.602 -155.48L349.516 -51.3323L349.997 -51.4704ZM305.433 27.6306L305.73 27.2277L187.499 -59.7234L187.203 -59.3206L186.906 -58.9177L305.137 28.0334L305.433 27.6306ZM652.216 89.6788L652.537 90.0626L652.539 90.0605L652.219 89.6766L651.899 89.2928L651.896 89.295L652.216 89.6788ZM429.11 223.963L428.63 224.101C432.863 238.84 442.209 251.588 454.99 260.059L455.266 259.642L455.542 259.225C442.959 250.885 433.759 238.335 429.591 223.825L429.11 223.963ZM163.351 416.558L162.87 416.696C167.104 431.435 176.449 444.183 189.231 452.654L189.507 452.237L189.783 451.82C177.2 443.481 167.999 430.93 163.831 416.42L163.351 416.558ZM240.842 361.673L240.361 361.811C244.595 376.55 253.94 389.298 266.721 397.769L266.998 397.352L267.274 396.935C254.691 388.596 245.49 376.045 241.322 361.535L240.842 361.673ZM399.877 301.054L400.153 300.637C387.57 292.298 378.37 279.747 374.202 265.237L373.721 265.375L373.241 265.513C377.474 280.252 386.82 293 399.601 301.471L399.877 301.054ZM296.231 320.26L295.75 320.398C299.984 335.137 309.329 347.885 322.11 356.356L322.387 355.94L322.663 355.523C310.08 347.183 300.879 334.633 296.711 320.122L296.231 320.26ZM107.962 457.97L107.481 458.108C111.715 472.847 121.06 485.595 133.842 494.066L134.118 493.65L134.394 493.233C121.811 484.893 112.61 472.343 108.442 457.832L107.962 457.97Z" fill="#2A2A2A" fill-opacity="0.1"/>
</g>
</svg>
