<svg width="406" height="305" viewBox="0 0 406 305" fill="none" xmlns="http://www.w3.org/2000/svg">
<g opacity="0.4">
<path d="M212.543 265.721C199.86 257.316 190.587 244.667 186.387 230.042L164.802 154.897L139.303 66.1191C139.303 66.1191 127.891 26.3886 120.578 0.93108C195.034 55.6885 309.897 140.809 328.467 154.467L404.667 393.053L275.16 307.221L212.543 265.721Z" fill="#2C2C2C"/>
<path d="M-45.7655 121.48L-27.0413 186.668L20.0427 350.591C24.2434 365.216 33.5164 377.865 46.1987 386.27L238.323 513.602L211.622 429.406L94.7016 351.917C82.0193 343.512 72.7463 330.862 68.5456 316.238L28.2374 175.904L-45.7655 121.48Z" fill="#2C2C2C"/>
<path d="M37.4065 61.2056L56.1306 126.394L81.6306 215.172L103.215 290.317C107.415 304.941 116.688 317.591 129.371 325.996L191.988 367.496L321.495 453.327L294.794 369.132L177.874 291.642C165.191 283.237 155.918 270.588 151.718 255.963L111.409 115.63L37.4065 61.2056Z" fill="#242424"/>
<path d="M-45.7655 121.48L-45.4692 121.077C-45.6466 120.947 -45.8885 120.948 -46.0648 121.08L-45.7655 121.48ZM238.323 513.602L238.622 514.002L238.907 513.79L238.8 513.451L238.323 513.602ZM-27.0413 186.668L-26.5608 186.53L-27.0413 186.668ZM197.592 535.505L197.316 535.922L197.592 535.505ZM209.488 535.161L209.788 535.561L209.488 535.161ZM-78.4662 154.253L-78.9467 154.391L-78.4662 154.253ZM-74.7232 143.131L-75.0225 142.73L-74.7232 143.131ZM37.4065 61.2056L37.7027 60.8027C37.5253 60.6723 37.2835 60.6732 37.1072 60.8051L37.4065 61.2056ZM321.495 453.327L321.794 453.728L322.079 453.515L321.972 453.176L321.495 453.327ZM56.1306 126.394L56.6112 126.256L56.1306 126.394ZM280.764 475.231L281.041 474.814L280.764 475.231ZM292.66 474.886L292.96 475.287L292.66 474.886ZM4.70573 93.9789L4.22519 94.1169L4.70573 93.9789ZM8.44876 82.8563L8.14942 82.4558L8.44876 82.8563ZM120.578 0.93108L120.875 0.528234C120.697 0.397789 120.455 0.398743 120.279 0.530592L120.578 0.93108ZM404.667 393.053L404.966 393.453L405.251 393.24L405.143 392.901L404.667 393.053ZM139.303 66.1191L139.783 65.9811L139.303 66.1191ZM363.936 414.956L364.212 414.54L363.936 414.956ZM375.832 414.612L376.131 415.012L375.832 414.612ZM87.8777 33.7043L88.3582 33.5663L87.8777 33.7043ZM91.6207 22.5818L91.3213 22.1813L91.6207 22.5818ZM164.802 154.897L164.322 155.035L164.802 154.897ZM275.16 307.221L275.436 306.805L275.16 307.221ZM81.6306 215.172L82.1111 215.034L81.6306 215.172ZM28.2374 175.904L28.718 175.766L28.2374 175.904ZM191.988 367.496L192.264 367.079L191.988 367.496ZM328.789 154.85C329.001 154.673 329.03 154.357 328.853 154.145C328.676 153.933 328.361 153.905 328.149 154.082L328.469 154.466L328.789 154.85ZM94.7016 351.917L94.9778 351.5L94.7016 351.917ZM151.718 255.963L151.237 256.101L151.718 255.963ZM103.215 290.317L103.695 290.179L103.215 290.317ZM129.371 325.996L129.647 325.579L129.371 325.996ZM-14.6263 376.512L-15.1068 376.65L-14.6263 376.512ZM11.5297 412.191L11.8059 411.774L11.5297 412.191ZM-78.4662 154.253L-78.9467 154.391L-15.1068 376.65L-14.6263 376.512L-14.1457 376.374L-77.9856 154.115L-78.4662 154.253ZM11.5297 412.191L11.2535 412.608L197.316 535.922L197.592 535.505L197.869 535.089L11.8059 411.774L11.5297 412.191ZM238.323 513.602L238.024 513.201L209.189 534.76L209.488 535.161L209.788 535.561L238.622 514.002L238.323 513.602ZM-45.7655 121.48L-46.0648 121.08C-55.203 127.912 -67.7992 137.33 -75.0225 142.73L-74.7232 143.131L-74.4238 143.531C-67.2005 138.131 -54.6043 128.713 -45.4661 121.881L-45.7655 121.48ZM-45.7655 121.48L-46.246 121.618C-42.5899 134.347 -37.9088 150.644 -34.1418 163.759C-32.2583 170.316 -30.6033 176.078 -29.4192 180.201C-28.8271 182.262 -28.3528 183.913 -28.0265 185.049C-27.8633 185.617 -27.7372 186.057 -27.6518 186.354C-27.6091 186.502 -27.5766 186.616 -27.5548 186.691C-27.5439 186.729 -27.5356 186.758 -27.5301 186.777C-27.5274 186.787 -27.5253 186.794 -27.5239 186.799C-27.5232 186.801 -27.5227 186.803 -27.5223 186.804C-27.5222 186.805 -27.5221 186.805 -27.522 186.806C-27.5219 186.806 -27.5218 186.806 -27.0413 186.668C-26.5608 186.53 -26.5608 186.53 -26.5609 186.53C-26.561 186.529 -26.5611 186.529 -26.5613 186.528C-26.5616 186.527 -26.5622 186.525 -26.5629 186.523C-26.5643 186.518 -26.5663 186.511 -26.5691 186.501C-26.5746 186.482 -26.5828 186.453 -26.5937 186.415C-26.6156 186.339 -26.648 186.226 -26.6907 186.078C-26.7761 185.78 -26.9022 185.341 -27.0654 184.773C-27.3917 183.637 -27.8661 181.986 -28.4581 179.924C-29.6423 175.802 -31.2973 170.04 -33.1808 163.483C-36.9478 150.368 -41.6288 134.071 -45.2849 121.342L-45.7655 121.48ZM-27.0413 186.668L-27.5218 186.806L19.5622 350.729L20.0427 350.591L20.5233 350.453L-26.5608 186.53L-27.0413 186.668ZM197.592 535.505L197.316 535.922C201.128 538.448 206.12 538.303 209.788 535.561L209.488 535.161L209.189 534.76C205.859 537.25 201.327 537.381 197.869 535.089L197.592 535.505ZM-78.4662 154.253L-77.9856 154.115C-79.1129 150.191 -77.6995 145.98 -74.4238 143.531L-74.7232 143.131L-75.0225 142.73C-78.6312 145.428 -80.1886 150.068 -78.9467 154.391L-78.4662 154.253ZM321.495 453.327L321.196 452.927L292.361 474.486L292.66 474.886L292.96 475.287L321.794 453.728L321.495 453.327ZM37.4065 61.2056L37.1072 60.8051C27.969 67.6374 15.3727 77.0552 8.14942 82.4558L8.44876 82.8563L8.74811 83.2568C15.9714 77.8561 28.5677 68.4384 37.7058 61.6061L37.4065 61.2056ZM37.4065 61.2056L36.926 61.3436C40.5821 74.0724 45.2631 90.3694 49.0301 103.484C50.9136 110.042 52.5686 115.804 53.7527 119.926C54.3448 121.987 54.8191 123.639 55.1455 124.775C55.3086 125.343 55.4348 125.782 55.5202 126.079C55.5628 126.228 55.5954 126.341 55.6172 126.417C55.628 126.455 55.6364 126.484 55.6418 126.503C55.6446 126.513 55.6466 126.519 55.648 126.524C55.6486 126.527 55.6493 126.529 55.6496 126.53C55.6498 126.53 55.6499 126.531 55.65 126.531C55.6501 126.532 55.6501 126.532 56.1306 126.394C56.6112 126.256 56.6111 126.255 56.611 126.255C56.611 126.255 56.6108 126.254 56.6107 126.254C56.6101 126.252 56.61 126.251 56.6091 126.248C56.6079 126.244 56.6054 126.235 56.6029 126.227C56.5973 126.207 56.5891 126.179 56.5782 126.141C56.5564 126.065 56.5239 125.952 56.4812 125.803C56.3959 125.506 56.2697 125.067 56.1065 124.499C55.7802 123.363 55.3059 121.711 54.7138 119.65C53.5297 115.527 51.8747 109.766 49.9912 103.208C46.2242 90.0933 41.5432 73.7963 37.887 61.0675L37.4065 61.2056ZM280.764 475.231L280.488 475.648C284.3 478.174 289.292 478.029 292.96 475.287L292.66 474.886L292.361 474.486C289.031 476.975 284.499 477.106 281.041 474.814L280.764 475.231ZM4.70573 93.9789L5.18627 93.8408C4.05905 89.9164 5.47242 85.7059 8.74811 83.2568L8.44876 82.8563L8.14942 82.4558C4.54072 85.1539 2.9833 89.7933 4.22519 94.1169L4.70573 93.9789ZM404.667 393.053L405.143 392.901L328.944 154.315L328.467 154.467L327.991 154.619L404.191 393.205L404.667 393.053ZM328.467 154.467L328.764 154.064C319.479 147.236 286.122 122.542 245.777 92.7095C205.433 62.8773 158.103 27.9074 120.875 0.528234L120.578 0.93108L120.282 1.33393C157.51 28.7122 204.839 63.6815 245.183 93.5136C285.526 123.345 318.885 148.041 328.171 154.87L328.467 154.467ZM404.667 393.053L404.367 392.652L375.533 414.211L375.832 414.612L376.131 415.012L404.966 393.453L404.667 393.053ZM120.578 0.93108L120.279 0.530592C111.141 7.36289 98.5447 16.7806 91.3213 22.1813L91.6207 22.5818L91.92 22.9823C99.1433 17.5816 111.74 8.16387 120.878 1.33157L120.578 0.93108ZM120.578 0.93108L120.098 1.06916C123.754 13.7979 128.435 30.0949 132.202 43.2098C134.086 49.7672 135.741 55.529 136.925 59.6515C137.517 61.7128 137.991 63.3642 138.317 64.5003C138.481 65.0684 138.607 65.5076 138.692 65.8048C138.735 65.9534 138.767 66.0665 138.789 66.1425C138.8 66.1804 138.808 66.2091 138.814 66.2283C138.816 66.2378 138.819 66.2452 138.82 66.25C138.821 66.2521 138.821 66.2545 138.821 66.2554C138.822 66.256 138.822 66.2565 138.822 66.2568C138.822 66.2571 138.822 66.2572 139.303 66.1191C139.783 65.9811 139.783 65.9809 139.783 65.9806C139.783 65.9803 139.783 65.9798 139.783 65.9792C139.782 65.9782 139.782 65.976 139.781 65.9738C139.78 65.969 139.778 65.9617 139.775 65.9522C139.769 65.9329 139.761 65.9043 139.75 65.8663C139.728 65.7903 139.696 65.6773 139.653 65.5286C139.568 65.2314 139.442 64.7922 139.278 64.2242C138.952 63.0881 138.478 61.4366 137.886 59.3754C136.702 55.2529 135.047 49.491 133.163 42.9336C129.396 29.8188 124.715 13.5218 121.059 0.793003L120.578 0.93108ZM363.936 414.956L363.66 415.373C367.472 417.899 372.464 417.754 376.131 415.012L375.832 414.612L375.533 414.211C372.203 416.701 367.671 416.832 364.212 414.54L363.936 414.956ZM87.8777 33.7043L88.3582 33.5663C87.231 29.6419 88.6443 25.4314 91.92 22.9823L91.6207 22.5818L91.3213 22.1813C87.7126 24.8794 86.1552 29.5188 87.3971 33.8424L87.8777 33.7043ZM46.1987 386.27L45.9225 386.687L238.047 514.019L238.323 513.602L238.599 513.185L46.4749 385.854L46.1987 386.27ZM139.303 66.1191L138.822 66.2572L164.322 155.035L164.802 154.897L165.283 154.759L139.783 65.9811L139.303 66.1191ZM164.802 154.897L164.322 155.035L185.906 230.18L186.387 230.042L186.867 229.904L165.283 154.759L164.802 154.897ZM111.409 115.63L111.706 115.227C85.9817 96.3089 60.1119 77.2832 37.7027 60.8027L37.4065 61.2056L37.1103 61.6084C59.5194 78.0889 85.3893 97.1145 111.113 116.033L111.409 115.63ZM87.8777 33.7043L87.3971 33.8424L110.929 115.768L111.409 115.63L111.89 115.492L88.3582 33.5663L87.8777 33.7043ZM212.543 265.721L212.266 266.138L274.884 307.638L275.16 307.221L275.436 306.805L212.819 265.305L212.543 265.721ZM275.16 307.221L274.884 307.638L404.391 393.47L404.667 393.053L404.943 392.636L275.436 306.805L275.16 307.221ZM321.495 453.327L321.972 453.176L295.27 368.981L294.794 369.132L294.317 369.283L321.018 453.479L321.495 453.327ZM294.794 369.132L294.518 369.549L363.66 415.373L363.936 414.956L364.212 414.54L295.07 368.715L294.794 369.132ZM177.874 291.642L177.597 292.059L294.518 369.549L294.794 369.132L295.07 368.715L178.15 291.225L177.874 291.642ZM111.409 115.63L110.929 115.768L151.237 256.101L151.718 255.963L152.198 255.825L111.89 115.492L111.409 115.63ZM56.1306 126.394L55.6501 126.532L81.1501 215.31L81.6306 215.172L82.1111 215.034L56.6112 126.256L56.1306 126.394ZM81.6306 215.172L81.1501 215.31L102.734 290.455L103.215 290.317L103.695 290.179L82.1111 215.034L81.6306 215.172ZM28.2374 175.904L28.5336 175.502C2.80981 156.583 -23.0601 137.558 -45.4692 121.077L-45.7655 121.48L-46.0616 121.883C-23.6525 138.363 2.21743 157.389 27.9413 176.307L28.2374 175.904ZM4.70573 93.9789L4.22519 94.1169L27.7569 176.043L28.2374 175.904L28.718 175.766L5.18627 93.8408L4.70573 93.9789ZM28.2374 175.904L27.7569 176.043L68.0651 316.376L68.5456 316.238L69.0261 316.099L28.718 175.766L28.2374 175.904ZM129.371 325.996L129.094 326.413L191.712 367.913L191.988 367.496L192.264 367.079L129.647 325.579L129.371 325.996ZM191.988 367.496L191.712 367.913L321.219 453.744L321.495 453.327L321.771 452.91L192.264 367.079L191.988 367.496ZM238.323 513.602L238.8 513.451L212.098 429.255L211.622 429.406L211.145 429.557L237.846 513.753L238.323 513.602ZM94.7016 351.917L94.4254 352.334L211.346 429.823L211.622 429.406L211.898 428.989L94.9778 351.5L94.7016 351.917ZM211.622 429.406L211.346 429.823L280.488 475.648L280.764 475.231L281.041 474.814L211.898 428.989L211.622 429.406ZM-45.7655 121.48L-46.246 121.618L-27.5218 186.806L-27.0413 186.668L-26.5608 186.53L-45.2849 121.342L-45.7655 121.48ZM28.2374 175.904L28.5336 175.502L-45.4692 121.077L-45.7655 121.48L-46.0616 121.883L27.9413 176.307L28.2374 175.904ZM-45.7655 121.48L-46.0648 121.08L-75.0225 142.73L-74.7232 143.131L-74.4238 143.531L-45.4661 121.881L-45.7655 121.48ZM56.1306 126.394L56.6112 126.256L37.887 61.0675L37.4065 61.2056L36.926 61.3436L55.6501 126.532L56.1306 126.394ZM37.4065 61.2056L37.1072 60.8051L8.14942 82.4558L8.44876 82.8563L8.74811 83.2568L37.7058 61.6061L37.4065 61.2056ZM120.578 0.93108L120.279 0.530592L91.3213 22.1813L91.6207 22.5818L91.92 22.9823L120.878 1.33157L120.578 0.93108ZM139.303 66.1191L139.783 65.9811L121.059 0.793003L120.578 0.93108L120.098 1.06916L138.822 66.2572L139.303 66.1191ZM111.409 115.63L111.706 115.227L37.7027 60.8027L37.4065 61.2056L37.1103 61.6084L111.113 116.033L111.409 115.63ZM328.467 154.467L328.788 154.851L328.789 154.85L328.469 154.466L328.149 154.082L328.147 154.083L328.467 154.467ZM186.387 230.042L185.906 230.18C190.14 244.919 199.485 257.667 212.266 266.138L212.543 265.721L212.819 265.305C200.236 256.965 191.035 244.415 186.867 229.904L186.387 230.042ZM20.0427 350.591L19.5622 350.729C23.7957 365.468 33.1412 378.216 45.9225 386.687L46.1987 386.27L46.4749 385.854C33.8917 377.514 24.6911 364.964 20.5233 350.453L20.0427 350.591ZM68.5456 316.238L68.0651 316.376C72.2986 331.115 81.6441 343.863 94.4254 352.334L94.7016 351.917L94.9778 351.5C82.3946 343.16 73.194 330.61 69.0261 316.099L68.5456 316.238ZM177.874 291.642L178.15 291.225C165.567 282.886 156.366 270.335 152.198 255.825L151.718 255.963L151.237 256.101C155.471 270.84 164.816 283.588 177.597 292.059L177.874 291.642ZM103.215 290.317L102.734 290.455C106.968 305.194 116.313 317.942 129.094 326.413L129.371 325.996L129.647 325.579C117.064 317.24 107.863 304.689 103.695 290.179L103.215 290.317ZM-14.6263 376.512L-15.1068 376.65C-10.8733 391.389 -1.52783 404.137 11.2535 412.608L11.5297 412.191L11.8059 411.774C-0.777282 403.435 -9.97785 390.884 -14.1457 376.374L-14.6263 376.512Z" fill="#707070" fill-opacity="0.3"/>
</g>
</svg>
