<svg width="32" height="32" viewBox="0 0 32 32" fill="none" xmlns="http://www.w3.org/2000/svg">
<path d="M4.00033 2.66666C4.73671 2.66666 5.33366 3.26362 5.33366 4V24.6667C5.33366 25.7712 6.22909 26.6667 7.33366 26.6667H28.0003C28.7367 26.6667 29.3337 27.2636 29.3337 28C29.3337 28.7364 28.7367 29.3333 28.0003 29.3333H6.66699C4.45785 29.3333 2.66699 27.5425 2.66699 25.3333V4C2.66699 3.26362 3.26395 2.66666 4.00033 2.66666ZM26.0003 9.33333C25.8235 9.33333 25.6539 9.40357 25.5289 9.52859C25.4039 9.65362 25.3337 9.82319 25.3337 10C25.3337 10.1768 25.4039 10.3464 25.5289 10.4714C25.6539 10.5964 25.8235 10.6667 26.0003 10.6667C26.1771 10.6667 26.3467 10.5964 26.4717 10.4714C26.5968 10.3464 26.667 10.1768 26.667 10C26.667 9.82319 26.5968 9.65362 26.4717 9.52859C26.3467 9.40357 26.1771 9.33333 26.0003 9.33333ZM22.667 10C22.6672 9.25099 22.9197 8.52389 23.3837 7.93593C23.8478 7.34798 24.4963 6.93344 25.2247 6.75917C25.9532 6.58489 26.7191 6.66103 27.399 6.97531C28.0789 7.28959 28.6331 7.8237 28.9723 8.4915C29.3115 9.1593 29.4159 9.92188 29.2686 10.6563C29.1214 11.3907 28.7311 12.0541 28.1607 12.5395C27.5903 13.0249 26.873 13.3041 26.1245 13.332C25.376 13.3599 24.64 13.1349 24.035 12.6933L13.3137 18.9547C13.4007 19.7155 13.2232 20.4831 12.8108 21.1285C12.3985 21.7738 11.7765 22.2575 11.0495 22.4981C10.3225 22.7388 9.53476 22.7218 8.8188 22.45C8.10285 22.1782 7.50233 21.6681 7.11822 21.0056C6.73411 20.3431 6.58984 19.5685 6.70967 18.8121C6.82951 18.0557 7.20613 17.3637 7.77622 16.8523C8.3463 16.341 9.07508 16.0415 9.83999 16.0043C10.6049 15.9671 11.3593 16.1944 11.9763 16.648L22.6897 10.3907C22.6757 10.2609 22.6682 10.1305 22.667 10ZM10.5777 19C10.5342 18.9236 10.4761 18.8565 10.4066 18.8026C10.3371 18.7488 10.2576 18.7092 10.1728 18.6861C10.0879 18.6631 9.99937 18.6571 9.91218 18.6684C9.825 18.6797 9.74091 18.7082 9.66477 18.7522C9.58863 18.7961 9.52194 18.8547 9.46853 18.9245C9.41513 18.9944 9.37607 19.0741 9.35359 19.1591C9.33112 19.2441 9.32568 19.3327 9.33759 19.4198C9.3495 19.5069 9.37853 19.5908 9.42299 19.6667C9.51203 19.8185 9.65752 19.929 9.82771 19.974C9.99791 20.019 10.179 19.9949 10.3315 19.9068C10.4839 19.8188 10.5954 19.6741 10.6415 19.5042C10.6876 19.3343 10.6647 19.153 10.5777 19Z" fill="#CA0016"/>
</svg>
