<svg width="20" height="20" viewBox="0 0 20 20" fill="none" xmlns="http://www.w3.org/2000/svg">
<path d="M6.66757 13.3417L6.67591 13.3325M5.0009 10.0083L5.00924 9.99917M6.66757 6.675L6.67591 6.66583M10.0009 5.00833L10.0092 4.99917M13.3342 6.675L13.3426 6.66583M17.0926 7.95C17.0215 8.14945 16.9111 8.33262 16.768 8.48864C16.6248 8.64467 16.4518 8.77038 16.2592 8.85833C15.2342 9.31717 14.3634 10.0621 13.7515 11.0038C13.1395 11.9454 12.8123 13.0436 12.8092 14.1667C12.8101 14.5583 12.8492 14.9492 12.9259 15.3333C12.9768 15.5682 12.9802 15.8108 12.9358 16.047C12.8914 16.2831 12.8002 16.508 12.6676 16.7083C12.5553 16.8837 12.4076 17.0336 12.234 17.1484C12.0603 17.2632 11.8645 17.3404 11.6592 17.375C10.5585 17.577 9.42655 17.5301 8.34631 17.2377C7.26608 16.9453 6.26497 16.4149 5.41636 15.6854C4.56775 14.9558 3.89315 14.0456 3.44203 13.0215C2.99091 11.9973 2.7747 10.8852 2.80924 9.76667C2.87391 7.89399 3.63341 6.11246 4.93976 4.76913C6.24612 3.42581 8.00577 2.6169 9.87591 2.5H10.3009C11.6974 2.50035 13.066 2.89057 14.2527 3.62672C15.4393 4.36287 16.3969 5.41571 17.0176 6.66667C17.2086 7.06248 17.2356 7.51774 17.0926 7.93333V7.95Z" stroke="#CA0016" stroke-linecap="round"/>
</svg>
