<svg width="18" height="18" viewBox="0 0 18 18" fill="none" xmlns="http://www.w3.org/2000/svg">
<path d="M3.3434 11.5926L1.10423 9.3534C1.0106 9.25965 0.958008 9.13257 0.958008 9.00007C0.958008 8.86757 1.0106 8.74048 1.10423 8.64673L3.3434 6.40757C3.43715 6.31393 3.56423 6.26134 3.69673 6.26134C3.82924 6.26134 3.95632 6.31393 4.05007 6.40757L6.28923 8.64673C6.38287 8.74048 6.43546 8.86757 6.43546 9.00007C6.43546 9.13257 6.38287 9.25965 6.28923 9.3534L4.05007 11.5926C3.95632 11.6862 3.82924 11.7388 3.69673 11.7388C3.56423 11.7388 3.43715 11.6862 3.3434 11.5926ZM8.64673 16.8959L6.40757 14.6567C6.36108 14.6103 6.3242 14.5552 6.29904 14.4945C6.27388 14.4338 6.26092 14.3687 6.26092 14.303C6.26092 14.2373 6.27388 14.1722 6.29904 14.1115C6.3242 14.0508 6.36108 13.9957 6.40757 13.9492L8.64673 11.7101C8.74049 11.6164 8.86757 11.5638 9.00007 11.5638C9.13257 11.5638 9.25965 11.6164 9.3534 11.7101L11.5926 13.9492C11.6391 13.9957 11.6759 14.0508 11.7011 14.1115C11.7263 14.1722 11.7392 14.2373 11.7392 14.303C11.7392 14.3687 11.7263 14.4338 11.7011 14.4945C11.6759 14.5552 11.6391 14.6103 11.5926 14.6567L9.3534 16.8959C9.25965 16.9895 9.13257 17.0421 9.00007 17.0421C8.86757 17.0421 8.74049 16.9895 8.64673 16.8959ZM8.64673 6.29007L6.40757 4.05007C6.31393 3.95632 6.26134 3.82923 6.26134 3.69673C6.26134 3.56423 6.31393 3.43715 6.40757 3.3434L8.64673 1.10423C8.74049 1.0106 8.86757 0.958008 9.00007 0.958008C9.13257 0.958008 9.25965 1.0106 9.3534 1.10423L11.5926 3.3434C11.6862 3.43715 11.7388 3.56423 11.7388 3.69673C11.7388 3.82923 11.6862 3.95632 11.5926 4.05007L9.3534 6.29007C9.25965 6.3837 9.13257 6.43629 9.00007 6.43629C8.86757 6.43629 8.74049 6.3837 8.64673 6.29007ZM13.9501 11.5926L11.7109 9.3534C11.6173 9.25965 11.5647 9.13257 11.5647 9.00007C11.5647 8.86757 11.6173 8.74048 11.7109 8.64673L13.9501 6.40757C14.0438 6.31393 14.1709 6.26134 14.3034 6.26134C14.4359 6.26134 14.563 6.31393 14.6567 6.40757L16.8959 8.64673C16.9895 8.74048 17.0421 8.86757 17.0421 9.00007C17.0421 9.13257 16.9895 9.25965 16.8959 9.3534L14.6567 11.5926C14.563 11.6862 14.4359 11.7388 14.3034 11.7388C14.1709 11.7388 14.0438 11.6862 13.9501 11.5926Z" stroke="#CA0016"/>
</svg>
