<svg width="32" height="32" viewBox="0 0 32 32" fill="none" xmlns="http://www.w3.org/2000/svg">
<path d="M29 9H3C2.20435 9 1.44129 8.68393 0.87868 8.12132C0.31607 7.55871 0 6.79565 0 6L0 3C0 2.20435 0.31607 1.44129 0.87868 0.87868C1.44129 0.31607 2.20435 0 3 0L29 0C29.7956 0 30.5587 0.31607 31.1213 0.87868C31.6839 1.44129 32 2.20435 32 3V6C32 6.79565 31.6839 7.55871 31.1213 8.12132C30.5587 8.68393 29.7956 9 29 9ZM3 2C2.73478 2 2.48043 2.10536 2.29289 2.29289C2.10536 2.48043 2 2.73478 2 3V6C2 6.26522 2.10536 6.51957 2.29289 6.70711C2.48043 6.89464 2.73478 7 3 7H29C29.2652 7 29.5196 6.89464 29.7071 6.70711C29.8946 6.51957 30 6.26522 30 6V3C30 2.73478 29.8946 2.48043 29.7071 2.29289C29.5196 2.10536 29.2652 2 29 2H3Z" fill="#CA0016"/>
<path d="M12 20H3C2.20435 20 1.44129 19.6839 0.87868 19.1213C0.31607 18.5587 0 17.7956 0 17L0 14C0 13.2044 0.31607 12.4413 0.87868 11.8787C1.44129 11.3161 2.20435 11 3 11H12C12.7956 11 13.5587 11.3161 14.1213 11.8787C14.6839 12.4413 15 13.2044 15 14V17C15 17.7956 14.6839 18.5587 14.1213 19.1213C13.5587 19.6839 12.7956 20 12 20ZM3 13C2.73478 13 2.48043 13.1054 2.29289 13.2929C2.10536 13.4804 2 13.7348 2 14V17C2 17.2652 2.10536 17.5196 2.29289 17.7071C2.48043 17.8946 2.73478 18 3 18H12C12.2652 18 12.5196 17.8946 12.7071 17.7071C12.8946 17.5196 13 17.2652 13 17V14C13 13.7348 12.8946 13.4804 12.7071 13.2929C12.5196 13.1054 12.2652 13 12 13H3Z" fill="#CA0016"/>
<path d="M12 31H3C2.20435 31 1.44129 30.6839 0.87868 30.1213C0.31607 29.5587 0 28.7956 0 28L0 25C0 24.2044 0.31607 23.4413 0.87868 22.8787C1.44129 22.3161 2.20435 22 3 22H12C12.7956 22 13.5587 22.3161 14.1213 22.8787C14.6839 23.4413 15 24.2044 15 25V28C15 28.7956 14.6839 29.5587 14.1213 30.1213C13.5587 30.6839 12.7956 31 12 31ZM3 24C2.73478 24 2.48043 24.1054 2.29289 24.2929C2.10536 24.4804 2 24.7348 2 25V28C2 28.2652 2.10536 28.5196 2.29289 28.7071C2.48043 28.8946 2.73478 29 3 29H12C12.2652 29 12.5196 28.8946 12.7071 28.7071C12.8946 28.5196 13 28.2652 13 28V25C13 24.7348 12.8946 24.4804 12.7071 24.2929C12.5196 24.1054 12.2652 24 12 24H3Z" fill="#CA0016"/>
<path d="M29 31H20C19.2044 31 18.4413 30.6839 17.8787 30.1213C17.3161 29.5587 17 28.7956 17 28V14C17 13.2044 17.3161 12.4413 17.8787 11.8787C18.4413 11.3161 19.2044 11 20 11H29C29.7956 11 30.5587 11.3161 31.1213 11.8787C31.6839 12.4413 32 13.2044 32 14V28C32 28.7956 31.6839 29.5587 31.1213 30.1213C30.5587 30.6839 29.7956 31 29 31ZM20 13C19.7348 13 19.4804 13.1054 19.2929 13.2929C19.1054 13.4804 19 13.7348 19 14V28C19 28.2652 19.1054 28.5196 19.2929 28.7071C19.4804 28.8946 19.7348 29 20 29H29C29.2652 29 29.5196 28.8946 29.7071 28.7071C29.8946 28.5196 30 28.2652 30 28V14C30 13.7348 29.8946 13.4804 29.7071 13.2929C29.5196 13.1054 29.2652 13 29 13H20Z" fill="#CA0016"/>
</svg>
