<svg width="18" height="17" viewBox="0 0 18 17" fill="none" xmlns="http://www.w3.org/2000/svg">
<path d="M1.74804 16.1686L7.05137 10.8652M7.05137 10.8652C6.93526 10.7492 6.84315 10.6114 6.78029 10.4597C6.71743 10.3081 6.68506 10.1455 6.68502 9.98137C6.68498 9.8172 6.71728 9.65463 6.78006 9.50295C6.84285 9.35126 6.9349 9.21343 7.05096 9.09732C7.16701 8.98121 7.3048 8.88909 7.45646 8.82624C7.60811 8.76338 7.77066 8.731 7.93483 8.73097C8.099 8.73093 8.26156 8.76322 8.41325 8.82601C8.56493 8.8888 8.70276 8.98085 8.81887 9.0969C9.05337 9.33129 9.18515 9.64923 9.18523 9.98078C9.18531 10.3123 9.05368 10.6303 8.81929 10.8648C8.58491 11.0993 8.26697 11.2311 7.93542 11.2312C7.60387 11.2313 7.28587 11.0996 7.05137 10.8652ZM13.828 8.21357L16.1847 5.85607C16.4972 5.54352 16.6727 5.11968 16.6727 4.67774C16.6727 4.2358 16.4972 3.81195 16.1847 3.4994L14.418 1.73107C14.2633 1.57623 14.0795 1.45341 13.8773 1.36961C13.675 1.28581 13.4582 1.24268 13.2393 1.24268C13.0204 1.24268 12.8036 1.28581 12.6013 1.36961C12.3991 1.45341 12.2153 1.57623 12.0605 1.73107L9.70387 4.08857M13.7297 8.5069L12.1422 13.2694C12.1169 13.3457 12.0735 13.4148 12.0158 13.4708C11.958 13.5268 11.8876 13.5681 11.8105 13.5911L2.07887 16.4836C1.9912 16.5096 1.89806 16.5111 1.8096 16.4879C1.72114 16.4647 1.64074 16.4176 1.57715 16.3519C1.51356 16.2862 1.46922 16.2042 1.44895 16.1151C1.42869 16.0259 1.43327 15.9328 1.46221 15.8461L4.62221 6.36774C4.64486 6.29968 4.68188 6.2373 4.73077 6.18481C4.77965 6.13233 4.83926 6.09098 4.90554 6.06357L9.39471 4.21524C9.48597 4.17754 9.58636 4.16772 9.6832 4.187C9.78004 4.20628 9.869 4.2538 9.93888 4.32357L13.6089 7.99524C13.6745 8.06089 13.7206 8.14353 13.742 8.23391C13.7633 8.32428 13.7591 8.41881 13.7297 8.5069Z" stroke="#CA0016" stroke-linecap="round" stroke-linejoin="round"/>
</svg>
