<svg width="15" height="16" viewBox="0 0 15 16" fill="none" xmlns="http://www.w3.org/2000/svg">
<path d="M1.16699 10.5002L1.95866 1.7885C1.9699 1.66412 2.02727 1.54846 2.1195 1.46425C2.21172 1.38005 2.33211 1.33341 2.45699 1.3335H13.9528C14.0223 1.33345 14.091 1.34788 14.1546 1.37587C14.2182 1.40387 14.2753 1.44481 14.3222 1.49609C14.3691 1.54737 14.4048 1.60786 14.427 1.6737C14.4492 1.73955 14.4574 1.80929 14.4512 1.8785L13.7087 10.0452C13.6974 10.1695 13.64 10.2852 13.5478 10.3694C13.4556 10.4536 13.3352 10.5003 13.2103 10.5002H1.16699ZM1.16699 10.5002L0.666992 15.5002" stroke="#CA0016" stroke-linecap="round" stroke-linejoin="round"/>
</svg>
