<svg width="18" height="16" viewBox="0 0 18 16" fill="none" xmlns="http://www.w3.org/2000/svg">
<path d="M0.666992 13.0005C0.667008 11.9056 0.975183 10.8328 1.55627 9.90475C2.13736 8.97675 2.9679 8.23102 3.9529 7.75287C4.9379 7.27471 6.03758 7.08343 7.12618 7.20091C8.21479 7.31838 9.24835 7.73987 10.1087 8.41715M13.167 8.83382H14.8337M6.50033 7.16715C7.38438 7.16715 8.23223 6.81597 8.85735 6.19084C9.48247 5.56572 9.83366 4.71788 9.83366 3.83382C9.83366 2.94977 9.48247 2.10192 8.85735 1.4768C8.23223 0.851678 7.38438 0.500488 6.50033 0.500488C5.61627 0.500488 4.76842 0.851678 4.1433 1.4768C3.51818 2.10192 3.16699 2.94977 3.16699 3.83382C3.16699 4.71788 3.51818 5.56572 4.1433 6.19084C4.76842 6.81597 5.61627 7.16715 6.50033 7.16715ZM16.8037 11.923L17.0503 13.5897C17.0854 13.8265 17.069 14.0682 17.0023 14.2982C16.9356 14.5282 16.8201 14.7411 16.6636 14.9225C16.5072 15.1038 16.3136 15.2493 16.0958 15.349C15.8781 15.4488 15.6415 15.5004 15.402 15.5005H12.5987C12.3592 15.5004 12.1225 15.4488 11.9048 15.349C11.6871 15.2493 11.4934 15.1038 11.337 14.9225C11.1806 14.7411 11.0651 14.5282 10.9983 14.2982C10.9316 14.0682 10.9152 13.8265 10.9503 13.5897L11.197 11.923C11.2555 11.5276 11.4542 11.1665 11.7568 10.9054C12.0593 10.6443 12.4457 10.5006 12.8453 10.5005H15.1553C15.555 10.5006 15.9413 10.6443 16.2439 10.9054C16.5464 11.1665 16.7451 11.5276 16.8037 11.923Z" stroke="#CA0016" stroke-linecap="round" stroke-linejoin="round"/>
</svg>
