<svg width="20" height="20" viewBox="0 0 20 20" fill="none" xmlns="http://www.w3.org/2000/svg">
<path d="M18.334 10.0002H19.1673M10.0007 1.66683V0.833496M10.0007 19.1668V18.3335M16.6673 16.6668L15.834 15.8335M16.6673 3.3335L15.834 4.16683M3.33398 16.6668L4.16732 15.8335M3.33398 3.3335L4.16732 4.16683M0.833984 10.0002H1.66732M10.0007 15.0002C11.3267 15.0002 12.5985 14.4734 13.5362 13.5357C14.4739 12.598 15.0006 11.3262 15.0006 10.0002C15.0006 8.67408 14.4739 7.40231 13.5362 6.46463C12.5985 5.52695 11.3267 5.00016 10.0007 5.00016C8.67457 5.00016 7.4028 5.52695 6.46512 6.46463C5.52743 7.40231 5.00065 8.67408 5.00065 10.0002C5.00065 11.3262 5.52743 12.598 6.46512 13.5357C7.4028 14.4734 8.67457 15.0002 10.0007 15.0002Z" stroke="#CA0016" stroke-linecap="round" stroke-linejoin="round"/>
</svg>
