<svg width="16" height="16" viewBox="0 0 16 16" fill="none" xmlns="http://www.w3.org/2000/svg">
<path d="M8 8.00049H5.5M8 8.00049C8 8.00049 10.0833 8.00049 10.0833 5.91715C10.0833 3.83382 8 3.83382 8 3.83382H6C5.86739 3.83382 5.74021 3.8865 5.64645 3.98027C5.55268 4.07404 5.5 4.20121 5.5 4.33382V8.00049M8 8.00049C8 8.00049 10.5 8.00049 10.5 10.2922C10.5 12.5838 8 12.5838 8 12.5838H6C5.86739 12.5838 5.74021 12.5311 5.64645 12.4374C5.55268 12.3436 5.5 12.2164 5.5 12.0838V8.00049M0.5 15.0005V1.00049C0.5 0.86788 0.552678 0.740703 0.646447 0.646935C0.740215 0.553167 0.867392 0.500488 1 0.500488H15C15.1326 0.500488 15.2598 0.553167 15.3536 0.646935C15.4473 0.740703 15.5 0.86788 15.5 1.00049V15.0005C15.5 15.1331 15.4473 15.2603 15.3536 15.354C15.2598 15.4478 15.1326 15.5005 15 15.5005H1C0.867392 15.5005 0.740215 15.4478 0.646447 15.354C0.552678 15.2603 0.5 15.1331 0.5 15.0005Z" stroke="#CA0016"/>
</svg>
