<svg width="18" height="19" viewBox="0 0 18 19" fill="none" xmlns="http://www.w3.org/2000/svg">
<path d="M13.3281 11.5001L16.5598 14.7318C16.8722 15.0443 17.0477 15.4682 17.0477 15.9101C17.0477 16.3521 16.8722 16.7759 16.5598 17.0884C16.2472 17.4009 15.8234 17.5764 15.3814 17.5764C14.9395 17.5764 14.5156 17.4009 14.2031 17.0884L9.02893 11.9151M4.61143 4.92011L2.84226 5.50844L1.07559 2.56261L2.25393 1.38428L5.2006 3.15178L4.61143 4.92011ZM4.61143 4.92011L6.96976 7.27844M7.3756 8.83928L1.48393 14.7309C1.32897 14.8857 1.20604 15.0695 1.12216 15.2719C1.03829 15.4742 0.995117 15.6911 0.995117 15.9101C0.995117 16.1291 1.03829 16.346 1.12216 16.5483C1.20604 16.7507 1.32897 16.9345 1.48393 17.0893C1.79647 17.4017 2.22032 17.5773 2.66226 17.5773C3.1042 17.5773 3.52805 17.4017 3.8406 17.0893L9.73226 11.1959C11.5264 11.8993 13.8806 11.7618 15.3306 10.3118C16.7806 8.86261 17.0989 6.18761 16.2139 4.71428L13.6806 7.24844L11.0881 7.48344L11.3239 4.89094L13.8573 2.35761C12.3848 1.47344 9.70976 1.79094 8.25976 3.24094C6.80976 4.69094 6.67226 7.04511 7.3756 8.83928Z" stroke="#CA0016" stroke-linecap="round" stroke-linejoin="round"/>
</svg>
