<svg width="16" height="16" viewBox="0 0 16 16" fill="none" xmlns="http://www.w3.org/2000/svg">
<path d="M5.5 3.00049V13.0005ZM10.5 3.00049V13.0005ZM5.5 3.00049C5.5 2.50604 5.35338 2.02269 5.07868 1.61156C4.80397 1.20044 4.41353 0.88001 3.95671 0.690791C3.49989 0.501571 2.99723 0.452063 2.51228 0.548526C2.02732 0.644989 1.58187 0.883091 1.23223 1.23272C0.882603 1.58235 0.644501 2.02781 0.548038 2.51276C0.451575 2.99772 0.501083 3.50038 0.690302 3.9572C0.879521 4.41401 1.19995 4.80446 1.61108 5.07916C2.0222 5.35387 2.50555 5.50049 3 5.50049H13C13.4945 5.50049 13.9778 5.35387 14.3889 5.07916C14.8001 4.80446 15.1205 4.41401 15.3097 3.9572C15.4989 3.50038 15.5484 2.99772 15.452 2.51276C15.3555 2.02781 15.1174 1.58235 14.7678 1.23272C14.4181 0.883091 13.9727 0.644989 13.4877 0.548526C13.0028 0.452063 12.5001 0.501571 12.0433 0.690791C11.5865 0.88001 11.196 1.20044 10.9213 1.61156C10.6466 2.02269 10.5 2.50604 10.5 3.00049M5.5 13.0005C5.5 13.4949 5.35338 13.9783 5.07868 14.3894C4.80397 14.8005 4.41353 15.121 3.95671 15.3102C3.49989 15.4994 2.99723 15.5489 2.51228 15.4525C2.02732 15.356 1.58187 15.1179 1.23223 14.7683C0.882603 14.4186 0.644501 13.9732 0.548038 13.4882C0.451575 13.0033 0.501083 12.5006 0.690302 12.0438C0.879521 11.587 1.19995 11.1965 1.61108 10.9218C2.0222 10.6471 2.50555 10.5005 3 10.5005H13C13.4945 10.5005 13.9778 10.6471 14.3889 10.9218C14.8001 11.1965 15.1205 11.587 15.3097 12.0438C15.4989 12.5006 15.5484 13.0033 15.452 13.4882C15.3555 13.9732 15.1174 14.4186 14.7678 14.7683C14.4181 15.1179 13.9727 15.356 13.4877 15.4525C13.0028 15.5489 12.5001 15.4994 12.0433 15.3102C11.5865 15.121 11.196 14.8005 10.9213 14.3894C10.6466 13.9783 10.5 13.4949 10.5 13.0005" stroke="#CA0016" stroke-linecap="round" stroke-linejoin="round"/>
</svg>
