<svg width="25" height="24" viewBox="0 0 25 24" fill="none" xmlns="http://www.w3.org/2000/svg">
<path fill-rule="evenodd" clip-rule="evenodd" d="M12.5 12C12.5 10.3431 13.8431 9 15.5 9C17.1569 9 18.5 10.3431 18.5 12C18.5 13.6569 17.1569 15 15.5 15C13.8431 15 12.5 13.6569 12.5 12Z" fill="#1ABCFE"/>
<path fill-rule="evenodd" clip-rule="evenodd" d="M6.5 18C6.5 16.3431 7.84315 15 9.5 15H12.5V18C12.5 19.6569 11.1569 21 9.5 21C7.84315 21 6.5 19.6569 6.5 18Z" fill="#0ACF83"/>
<path fill-rule="evenodd" clip-rule="evenodd" d="M12.5 3V9H15.5C17.1569 9 18.5 7.65685 18.5 6C18.5 4.34315 17.1569 3 15.5 3H12.5Z" fill="#FF7262"/>
<path fill-rule="evenodd" clip-rule="evenodd" d="M6.5 6C6.5 7.65685 7.84315 9 9.5 9H12.5V3H9.5C7.84315 3 6.5 4.34315 6.5 6Z" fill="#F24E1E"/>
<path fill-rule="evenodd" clip-rule="evenodd" d="M6.5 12C6.5 13.6569 7.84315 15 9.5 15H12.5V9H9.5C7.84315 9 6.5 10.3431 6.5 12Z" fill="#A259FF"/>
</svg>
