<svg width="39" height="38" viewBox="0 0 39 38" fill="none" xmlns="http://www.w3.org/2000/svg">
<g filter="url(#filter0_ddi_799_24939)">
<rect x="3.5" y="2" width="32" height="32" rx="16" fill="#1C1C1C"/>
<rect x="3" y="1.5" width="33" height="33" rx="16.5" stroke="black"/>
<path d="M16.7822 9.89036C17.2044 9.89036 17.5466 10.2672 17.5466 10.7321V14.6605C17.5466 15.4121 17.6929 15.7297 17.9854 16.1746C18.2919 16.604 18.7795 16.8188 19.4481 16.8188C20.1168 16.8188 20.6113 16.604 20.9317 16.1746C21.2521 15.7297 21.4123 15.4121 21.4123 14.6605V10.7321C21.4123 10.2672 21.7546 9.89036 22.1768 9.89036L25.2658 8.85742C25.688 8.85742 26.0302 9.23429 26.0302 9.69917V14.6605C26.0302 16.2097 25.7377 17.2559 25.1526 18.3603C24.5676 19.4494 23.7666 20.27 22.7496 20.8222C21.7327 21.3744 20.5974 21.6504 19.3437 21.6504C18.0899 21.6504 16.9755 21.3744 16.0004 20.8222C15.0392 20.27 14.2869 19.4494 13.7436 18.3603C13.2004 17.2713 12.9287 16.2251 12.9287 14.6605V9.69918C12.9287 9.23429 13.271 8.85742 13.6932 8.85742L16.7822 9.89036Z" fill="white"/>
<path d="M17.1736 22.6371L16.2225 22.2762C16.094 22.2275 15.9591 22.2026 15.8232 22.2026C14.5809 22.2026 14.1267 24.0031 15.1909 24.7086L18.2777 26.7547C18.9787 27.2194 19.8546 27.2233 20.559 26.7649L23.7692 24.6759C24.8268 23.9877 24.3835 22.2026 23.155 22.2026C23.0206 22.2026 22.8872 22.2273 22.7602 22.2757L21.8209 22.6337C20.3158 23.2073 18.6794 23.2085 17.1736 22.6371Z" fill="#CA0016"/>
</g>
<defs>
<filter id="filter0_ddi_799_24939" x="0.5" y="0" width="38" height="38" filterUnits="userSpaceOnUse" color-interpolation-filters="sRGB">
<feFlood flood-opacity="0" result="BackgroundImageFix"/>
<feColorMatrix in="SourceAlpha" type="matrix" values="0 0 0 0 0 0 0 0 0 0 0 0 0 0 0 0 0 0 127 0" result="hardAlpha"/>
<feMorphology radius="1" operator="dilate" in="SourceAlpha" result="effect1_dropShadow_799_24939"/>
<feOffset/>
<feComposite in2="hardAlpha" operator="out"/>
<feColorMatrix type="matrix" values="0 0 0 0 0.141176 0 0 0 0 0.14902 0 0 0 0 0.156863 0 0 0 1 0"/>
<feBlend mode="normal" in2="BackgroundImageFix" result="effect1_dropShadow_799_24939"/>
<feColorMatrix in="SourceAlpha" type="matrix" values="0 0 0 0 0 0 0 0 0 0 0 0 0 0 0 0 0 0 127 0" result="hardAlpha"/>
<feOffset dy="1"/>
<feGaussianBlur stdDeviation="1"/>
<feComposite in2="hardAlpha" operator="out"/>
<feColorMatrix type="matrix" values="0 0 0 0 0.105882 0 0 0 0 0.109804 0 0 0 0 0.113725 0 0 0 0.48 0"/>
<feBlend mode="normal" in2="effect1_dropShadow_799_24939" result="effect2_dropShadow_799_24939"/>
<feBlend mode="normal" in="SourceGraphic" in2="effect2_dropShadow_799_24939" result="shape"/>
<feColorMatrix in="SourceAlpha" type="matrix" values="0 0 0 0 0 0 0 0 0 0 0 0 0 0 0 0 0 0 127 0" result="hardAlpha"/>
<feOffset dy="0.75"/>
<feComposite in2="hardAlpha" operator="arithmetic" k2="-1" k3="1"/>
<feColorMatrix type="matrix" values="0 0 0 0 1 0 0 0 0 1 0 0 0 0 1 0 0 0 0.12 0"/>
<feBlend mode="normal" in2="shape" result="effect3_innerShadow_799_24939"/>
</filter>
</defs>
</svg>
