<svg width="377" height="374" viewBox="0 0 377 374" fill="none" xmlns="http://www.w3.org/2000/svg">
<g opacity="0.4">
<path d="M304.098 89.2543C291.417 80.8493 282.144 68.2008 277.944 53.5769L255.175 -25.6877L228.599 -118.204C228.599 -118.204 216.706 -159.608 209.085 -186.137C286.676 -129.072 406.374 -40.3644 425.727 -26.1314L505.14 222.501L370.18 133.052L304.098 89.2543Z" fill="#EDEDED"/>
<path d="M35.7449 -60.5175L55.2588 7.4155L104.603 179.196C108.804 193.82 118.076 206.469 130.758 214.874L331.799 348.12L303.972 260.379L181.301 179.075C168.619 170.67 159.347 158.022 155.146 143.398L112.863 -3.79984L35.7449 -60.5175Z" fill="#EDEDED"/>
<path d="M122.415 -123.327L141.929 -55.3943L168.505 37.122L191.273 116.387C195.474 131.011 204.747 143.659 217.428 152.064L283.51 195.862L418.469 285.311L390.642 197.57L267.971 116.265C255.29 107.86 246.017 95.2119 241.817 80.5881L199.534 -66.6096L122.415 -123.327Z" fill="#FDFDFD"/>
<path d="M35.7449 -60.5175L36.0411 -60.9203C35.8637 -61.0508 35.6219 -61.0498 35.4455 -60.918L35.7449 -60.5175ZM331.799 348.12L332.098 348.521L332.383 348.308L332.276 347.969L331.799 348.12ZM55.2588 7.4155L55.7393 7.27741L55.2588 7.4155ZM289.355 370.945L289.079 371.362L289.355 370.945ZM301.752 370.586L302.051 370.987L301.752 370.586ZM1.66897 -26.3654L1.18844 -26.2273L1.66897 -26.3654ZM5.5692 -37.9561L5.26986 -38.3566L5.5692 -37.9561ZM122.415 -123.327L122.711 -123.73C122.534 -123.861 122.292 -123.86 122.116 -123.728L122.415 -123.327ZM418.469 285.311L418.769 285.711L419.053 285.498L418.946 285.159L418.469 285.311ZM141.929 -55.3943L142.41 -55.5324L141.929 -55.3943ZM376.025 308.135L376.302 307.718L376.025 308.135ZM388.422 307.776L388.721 308.177L388.422 307.776ZM88.3392 -89.1751L87.8587 -89.037L88.3392 -89.1751ZM92.2395 -100.766L91.9401 -101.166L92.2395 -100.766ZM209.085 -186.137L209.382 -186.54C209.204 -186.67 208.962 -186.669 208.786 -186.537L209.085 -186.137ZM505.14 222.501L505.439 222.901L505.724 222.688L505.616 222.349L505.14 222.501ZM228.599 -118.204L229.08 -118.342L228.599 -118.204ZM462.696 245.325L462.972 244.909L462.696 245.325ZM475.092 244.967L475.391 245.367L475.092 244.967ZM175.009 -151.985L175.49 -152.123L175.009 -151.985ZM178.91 -163.576L178.61 -163.976L178.91 -163.576ZM255.175 -25.6877L254.694 -25.5496L255.175 -25.6877ZM370.18 133.052L370.457 132.636L370.18 133.052ZM168.505 37.122L168.985 36.984L168.505 37.122ZM112.863 -3.79984L113.344 -3.93793L112.863 -3.79984ZM283.51 195.862L283.786 195.445L283.51 195.862ZM426.049 -25.749C426.261 -25.926 426.289 -26.2413 426.112 -26.4533C425.935 -26.6653 425.62 -26.6936 425.408 -26.5166L425.729 -26.1328L426.049 -25.749ZM277.944 53.5769L277.463 53.715L277.944 53.5769ZM304.098 89.2543L303.822 89.6712L304.098 89.2543ZM155.146 143.398L154.666 143.536L155.146 143.398ZM181.301 179.075L181.577 178.658L181.301 179.075ZM191.273 116.387L190.793 116.525L191.273 116.387ZM217.428 152.064L217.704 151.647L217.428 152.064ZM1.66897 -26.3654L1.18844 -26.2273L67.9955 206.346L68.476 206.208L68.9566 206.069L2.1495 -26.5035L1.66897 -26.3654ZM94.6307 241.885L94.3544 242.302L289.079 371.362L289.355 370.945L289.631 370.528L94.9069 241.468L94.6307 241.885ZM331.799 348.12L331.5 347.72L301.452 370.186L301.752 370.586L302.051 370.987L332.098 348.521L331.799 348.12ZM35.7449 -60.5175L35.4455 -60.918C25.923 -53.7983 12.797 -43.9844 5.26986 -38.3566L5.5692 -37.9561L5.86855 -37.5556C13.3957 -43.1834 26.5217 -52.9973 36.0442 -60.117L35.7449 -60.5175ZM35.7449 -60.5175L35.2644 -60.3794C39.0747 -47.1147 43.9532 -30.1314 47.879 -16.4643C49.842 -9.63082 51.5668 -3.62633 52.8009 0.669767C53.4179 2.81782 53.9122 4.53877 54.2523 5.7227C54.4224 6.31469 54.5539 6.7724 54.6428 7.08213C54.6873 7.23701 54.7212 7.35483 54.7439 7.43401C54.7553 7.47354 54.7639 7.5035 54.7696 7.52348C54.7725 7.53352 54.7746 7.54095 54.7761 7.54602C54.7769 7.54873 54.7773 7.55025 54.7777 7.55169C54.7779 7.55231 54.778 7.5528 54.7781 7.5531C54.7782 7.55342 54.7783 7.55358 55.2588 7.4155C55.7393 7.27741 55.7393 7.27725 55.7392 7.27694C55.7391 7.27662 55.739 7.27614 55.7388 7.27551C55.7385 7.27433 55.7378 7.27229 55.7372 7.26985C55.7357 7.26488 55.7335 7.25725 55.7307 7.2473C55.7249 7.22726 55.7164 7.19743 55.705 7.15783C55.6822 7.07871 55.6484 6.96078 55.6039 6.80595C55.5149 6.49622 55.3834 6.03852 55.2134 5.44653C54.8733 4.2626 54.379 2.54165 53.7619 0.39359C52.5279 -3.90251 50.8031 -9.907 48.8401 -16.7405C44.9142 -30.4076 40.0358 -47.3908 36.2254 -60.6556L35.7449 -60.5175ZM55.2588 7.4155L54.7783 7.55358L104.123 179.335L104.603 179.196L105.084 179.058L55.7393 7.27741L55.2588 7.4155ZM289.355 370.945L289.079 371.362C293.043 373.989 298.236 373.839 302.051 370.987L301.752 370.586L301.452 370.186C297.975 372.785 293.243 372.922 289.631 370.528L289.355 370.945ZM1.66897 -26.3654L2.1495 -26.5035C0.972329 -30.6015 2.4481 -34.9983 5.86855 -37.5556L5.5692 -37.9561L5.26986 -38.3566C1.51636 -35.5502 -0.103424 -30.7246 1.18844 -26.2273L1.66897 -26.3654ZM418.469 285.311L418.17 284.91L388.123 307.376L388.422 307.776L388.721 308.177L418.769 285.711L418.469 285.311ZM122.415 -123.327L122.116 -123.728C112.593 -116.608 99.4673 -106.794 91.9401 -101.166L92.2395 -100.766L92.5388 -100.365C100.066 -105.993 113.192 -115.807 122.715 -122.927L122.415 -123.327ZM122.415 -123.327L121.935 -123.189C125.745 -109.924 130.623 -92.9412 134.549 -79.2741C136.512 -72.4406 138.237 -66.4361 139.471 -62.14C140.088 -59.992 140.583 -58.271 140.923 -57.0871C141.093 -56.4951 141.224 -56.0374 141.313 -55.7276C141.358 -55.5728 141.391 -55.4549 141.414 -55.3758C141.426 -55.3363 141.434 -55.3063 141.44 -55.2863C141.443 -55.2762 141.445 -55.2689 141.446 -55.2637C141.447 -55.2605 141.447 -55.2601 141.448 -55.2581C141.448 -55.2575 141.448 -55.257 141.448 -55.2567C141.449 -55.2564 141.449 -55.2562 141.929 -55.3943C142.41 -55.5324 142.41 -55.5325 142.409 -55.5328C142.409 -55.5332 142.409 -55.5336 142.409 -55.5343C142.409 -55.5352 142.408 -55.5378 142.407 -55.5399C142.406 -55.5448 142.404 -55.5526 142.401 -55.5625C142.395 -55.5825 142.387 -55.6123 142.375 -55.652C142.353 -55.7311 142.319 -55.8489 142.274 -56.0038C142.185 -56.3136 142.054 -56.7713 141.884 -57.3632C141.544 -58.5472 141.049 -60.2681 140.432 -62.4162C139.198 -66.7123 137.473 -72.7168 135.51 -79.5503C131.585 -93.2174 126.706 -110.201 122.896 -123.465L122.415 -123.327ZM376.025 308.135L375.749 308.552C379.714 311.18 384.907 311.029 388.721 308.177L388.422 307.776L388.123 307.376C384.645 309.975 379.913 310.112 376.302 307.718L376.025 308.135ZM88.3392 -89.1751L88.8197 -89.3132C87.6426 -93.4112 89.1183 -97.808 92.5388 -100.365L92.2395 -100.766L91.9401 -101.166C88.1866 -98.36 86.5668 -93.5343 87.8587 -89.037L88.3392 -89.1751ZM505.14 222.501L505.616 222.349L426.203 -26.2835L425.727 -26.1314L425.251 -25.9792L504.663 222.653L505.14 222.501ZM425.727 -26.1314L426.023 -26.5342C416.348 -33.6502 381.586 -59.3846 339.543 -90.4743C297.5 -121.564 248.177 -158.007 209.382 -186.54L209.085 -186.137L208.789 -185.734C247.584 -157.202 296.906 -120.759 338.948 -89.6702C380.99 -58.5816 415.754 -32.8456 425.431 -25.7285L425.727 -26.1314ZM505.14 222.501L504.84 222.1L474.793 244.566L475.092 244.967L475.391 245.367L505.439 222.901L505.14 222.501ZM209.085 -186.137L208.786 -186.537C199.264 -179.418 186.137 -169.604 178.61 -163.976L178.91 -163.576L179.209 -163.175C186.736 -168.803 199.862 -178.617 209.385 -185.737L209.085 -186.137ZM209.085 -186.137L208.605 -185.999C212.415 -172.734 217.294 -155.751 221.22 -142.084C223.183 -135.25 224.907 -129.246 226.141 -124.95C226.758 -122.802 227.253 -121.081 227.593 -119.897C227.763 -119.305 227.894 -118.847 227.983 -118.537C228.028 -118.383 228.062 -118.265 228.084 -118.186C228.096 -118.146 228.104 -118.116 228.11 -118.096C228.113 -118.086 228.115 -118.078 228.117 -118.073C228.117 -118.071 228.118 -118.069 228.118 -118.068C228.118 -118.067 228.119 -118.067 228.119 -118.066C228.119 -118.066 228.119 -118.066 228.599 -118.204C229.08 -118.342 229.08 -118.342 229.08 -118.343C229.08 -118.343 229.079 -118.343 229.079 -118.344C229.079 -118.345 229.078 -118.347 229.078 -118.35C229.076 -118.355 229.074 -118.362 229.071 -118.372C229.065 -118.392 229.057 -118.422 229.045 -118.462C229.023 -118.541 228.989 -118.659 228.944 -118.814C228.855 -119.123 228.724 -119.581 228.554 -120.173C228.214 -121.357 227.719 -123.078 227.102 -125.226C225.868 -129.522 224.144 -135.527 222.181 -142.36C218.255 -156.027 213.376 -173.01 209.566 -186.275L209.085 -186.137ZM462.696 245.325L462.42 245.742C466.384 248.37 471.577 248.219 475.391 245.367L475.092 244.967L474.793 244.566C471.316 247.166 466.584 247.302 462.972 244.909L462.696 245.325ZM175.009 -151.985L175.49 -152.123C174.313 -156.221 175.789 -160.618 179.209 -163.175L178.91 -163.576L178.61 -163.976C174.857 -161.17 173.237 -156.344 174.529 -151.847L175.009 -151.985ZM130.758 214.874L130.482 215.291L331.523 348.537L331.799 348.12L332.075 347.704L131.034 214.457L130.758 214.874ZM228.599 -118.204L228.119 -118.066L254.694 -25.5496L255.175 -25.6877L255.655 -25.8258L229.08 -118.342L228.599 -118.204ZM255.175 -25.6877L254.694 -25.5496L277.463 53.715L277.944 53.5769L278.424 53.4388L255.655 -25.8258L255.175 -25.6877ZM199.534 -66.6096L199.83 -67.0124C173.023 -86.7278 146.064 -106.555 122.711 -123.73L122.415 -123.327L122.119 -122.924C145.472 -105.749 172.431 -85.9221 199.238 -66.2067L199.534 -66.6096ZM175.009 -151.985L174.529 -151.847L199.053 -66.4715L199.534 -66.6096L200.014 -66.7477L175.49 -152.123L175.009 -151.985ZM304.098 89.2543L303.822 89.6712L369.904 133.469L370.18 133.052L370.457 132.636L304.375 88.8375L304.098 89.2543ZM370.18 133.052L369.904 133.469L504.863 222.918L505.14 222.501L505.416 222.084L370.457 132.636L370.18 133.052ZM418.469 285.311L418.946 285.159L391.119 197.419L390.642 197.57L390.166 197.721L417.993 285.462L418.469 285.311ZM390.642 197.57L390.366 197.987L462.42 245.742L462.696 245.325L462.972 244.909L390.918 197.153L390.642 197.57ZM267.971 116.265L267.695 116.682L390.366 197.987L390.642 197.57L390.918 197.153L268.247 115.849L267.971 116.265ZM199.534 -66.6096L199.053 -66.4715L241.336 80.7262L241.817 80.5881L242.297 80.45L200.014 -66.7477L199.534 -66.6096ZM141.929 -55.3943L141.449 -55.2562L168.024 37.2601L168.505 37.122L168.985 36.984L142.41 -55.5324L141.929 -55.3943ZM168.505 37.122L168.024 37.2601L190.793 116.525L191.273 116.387L191.754 116.249L168.985 36.984L168.505 37.122ZM112.863 -3.79984L113.16 -4.20268C86.3528 -23.9181 59.3937 -43.7454 36.0411 -60.9203L35.7449 -60.5175L35.4487 -60.1146C58.8013 -42.9397 85.7604 -23.1124 112.567 -3.39699L112.863 -3.79984ZM88.3392 -89.1751L87.8587 -89.037L112.383 -3.66175L112.863 -3.79984L113.344 -3.93793L88.8197 -89.3132L88.3392 -89.1751ZM112.863 -3.79984L112.383 -3.66175L154.666 143.536L155.146 143.398L155.627 143.26L113.344 -3.93793L112.863 -3.79984ZM217.428 152.064L217.152 152.481L283.234 196.279L283.51 195.862L283.786 195.445L217.704 151.647L217.428 152.064ZM283.51 195.862L283.234 196.279L418.193 285.727L418.469 285.311L418.746 284.894L283.786 195.445L283.51 195.862ZM331.799 348.12L332.276 347.969L304.449 260.228L303.972 260.379L303.495 260.531L331.323 348.272L331.799 348.12ZM181.301 179.075L181.025 179.492L303.696 260.796L303.972 260.379L304.248 259.963L181.577 178.658L181.301 179.075ZM303.972 260.379L303.696 260.796L375.749 308.552L376.025 308.135L376.302 307.718L304.248 259.963L303.972 260.379ZM35.7449 -60.5175L35.2644 -60.3794L54.7783 7.55358L55.2588 7.4155L55.7393 7.27741L36.2254 -60.6556L35.7449 -60.5175ZM112.863 -3.79984L113.16 -4.20268L36.0411 -60.9203L35.7449 -60.5175L35.4487 -60.1146L112.567 -3.39699L112.863 -3.79984ZM35.7449 -60.5175L35.4455 -60.918L5.26986 -38.3566L5.5692 -37.9561L5.86855 -37.5556L36.0442 -60.117L35.7449 -60.5175ZM141.929 -55.3943L142.41 -55.5324L122.896 -123.465L122.415 -123.327L121.935 -123.189L141.449 -55.2562L141.929 -55.3943ZM122.415 -123.327L122.116 -123.728L91.9401 -101.166L92.2395 -100.766L92.5388 -100.365L122.715 -122.927L122.415 -123.327ZM209.085 -186.137L208.786 -186.537L178.61 -163.976L178.91 -163.576L179.209 -163.175L209.385 -185.737L209.085 -186.137ZM228.599 -118.204L229.08 -118.342L209.566 -186.275L209.085 -186.137L208.605 -185.999L228.119 -118.066L228.599 -118.204ZM199.534 -66.6096L199.83 -67.0124L122.711 -123.73L122.415 -123.327L122.119 -122.924L199.238 -66.2067L199.534 -66.6096ZM425.727 -26.1314L426.047 -25.7475L426.049 -25.749L425.729 -26.1328L425.408 -26.5166L425.407 -26.5152L425.727 -26.1314ZM277.944 53.5769L277.463 53.715C281.697 68.4531 291.042 81.2005 303.822 89.6712L304.098 89.2543L304.375 88.8375C291.792 80.4982 282.592 67.9484 278.424 53.4388L277.944 53.5769ZM104.603 179.196L104.123 179.335C108.356 194.073 117.701 206.82 130.482 215.291L130.758 214.874L131.034 214.457C118.452 206.118 109.252 193.568 105.084 179.058L104.603 179.196ZM155.146 143.398L154.666 143.536C158.899 158.274 168.244 171.021 181.025 179.492L181.301 179.075L181.577 178.658C168.995 170.319 159.795 157.769 155.627 143.26L155.146 143.398ZM267.971 116.265L268.247 115.849C255.665 107.509 246.465 94.9596 242.297 80.45L241.817 80.5881L241.336 80.7262C245.57 95.4642 254.914 108.212 267.695 116.682L267.971 116.265ZM191.273 116.387L190.793 116.525C195.026 131.263 204.371 144.01 217.152 152.481L217.428 152.064L217.704 151.647C205.122 143.308 195.922 130.758 191.754 116.249L191.273 116.387ZM68.476 206.208L67.9955 206.346C72.229 221.084 81.574 233.831 94.3544 242.302L94.6307 241.885L94.9069 241.468C82.3245 233.129 73.1245 220.579 68.9566 206.069L68.476 206.208Z" fill="#2A2A2A" fill-opacity="0.1"/>
</g>
</svg>
