<svg width="93" height="93" viewBox="0 0 93 93" fill="none" xmlns="http://www.w3.org/2000/svg">
<path d="M33.935 9.13001C35.9018 9.13001 37.4962 10.8706 37.4962 13.0177V31.1611C37.4962 34.6323 38.1776 36.0993 39.5403 38.1537C40.9679 40.1372 43.2392 41.129 46.354 41.129C49.4688 41.129 51.7725 40.1372 53.265 38.1537C54.7575 36.0993 55.5038 34.6323 55.5038 31.1611V13.0177C55.5038 10.8706 57.0982 9.13001 59.065 9.13001L73.4545 4.35938C75.4212 4.35938 77.0156 6.09993 77.0156 8.24702V31.1611C77.0156 38.3161 75.6529 43.148 72.9274 48.2486C70.2019 53.2784 66.4706 57.0684 61.7335 59.6187C56.9963 62.169 51.7076 63.4441 45.8673 63.4441C40.027 63.4441 34.8356 62.169 30.2931 59.6187C25.8156 57.0684 22.3114 53.2784 19.7806 48.2486C17.2498 43.2189 15.9844 38.3869 15.9844 31.1611V8.24702C15.9844 6.09994 17.5788 4.35938 19.5455 4.35938L33.935 9.13001Z" fill="white"/>
<path d="M35.7587 68.0012L31.3281 66.3343C30.7296 66.1091 30.1008 65.9942 29.4677 65.9942C23.6809 65.9942 21.5649 74.3098 26.5226 77.5681L40.9018 87.0183C44.1671 89.1644 48.2476 89.1825 51.5289 87.0655L66.4829 77.4173C71.4095 74.2387 69.3446 65.9942 63.622 65.9942C62.9959 65.9942 62.3743 66.1083 61.7827 66.3318L57.407 67.9853C50.3958 70.6346 42.7732 70.6402 35.7587 68.0012Z" fill="#CA0016" fill-opacity="0.9"/>
</svg>
