<svg width="457" height="750" viewBox="0 0 457 750" fill="none" xmlns="http://www.w3.org/2000/svg">
<g opacity="0.4">
<path d="M239.997 388.65C231.357 376.127 227.46 360.935 229.007 345.798L241.231 226.159L254.502 96.2725C254.502 96.2725 260.442 38.1448 264.247 0.899121C333.105 111.921 438.991 284.042 456.166 311.732L430.562 664.832L305.838 484.072L239.997 388.65Z" fill="#121212"/>
<path d="M-17.4211 71.4976L-27.166 166.871L-52.6615 416.396C-54.2082 431.533 -50.3117 446.726 -41.671 459.249L148.894 735.431L158.177 610.923L40.0395 439.708C31.3987 427.185 27.5022 411.993 29.0489 396.856L51.018 181.844L-17.4211 71.4976Z" fill="#121212"/>
<path d="M123.413 36.1983L113.668 131.572L100.397 261.459L88.1727 381.097C86.626 396.234 90.5225 411.427 99.1632 423.95L165.004 519.371L289.728 700.131L299.012 575.624L180.874 404.409C172.233 391.886 168.336 376.694 169.883 361.556L191.852 146.544L123.413 36.1983Z" fill="#0D0D0D"/>
<path d="M-17.4211 71.4976L-16.9962 71.234C-17.1123 71.0469 -17.3371 70.9577 -17.5498 71.0144L-17.4211 71.4976ZM148.894 735.431L149.022 735.914L149.366 735.822L149.392 735.468L148.894 735.431ZM-27.166 166.871L-26.6686 166.922L-27.166 166.871ZM83.9321 742.729L83.5206 743.013L83.9321 742.729ZM99.7195 748.537L99.8482 749.02L99.7195 748.537ZM-77.5692 97.2816L-78.0666 97.2308L-77.5692 97.2816ZM-66.8049 84.6601L-66.9336 84.177L-66.8049 84.6601ZM123.413 36.1983L123.838 35.9347C123.722 35.7476 123.497 35.6585 123.284 35.7152L123.413 36.1983ZM289.728 700.131L289.857 700.615L290.2 700.523L290.226 700.168L289.728 700.131ZM113.668 131.572L114.166 131.623L113.668 131.572ZM224.766 707.43L225.178 707.145L224.766 707.43ZM240.554 713.238L240.682 713.721L240.554 713.238ZM63.265 61.9824L62.7676 61.9316L63.265 61.9824ZM74.0293 49.3609L73.9006 48.8777L74.0293 49.3609ZM264.247 0.899121L264.672 0.635524C264.556 0.448414 264.331 0.359263 264.119 0.415971L264.247 0.899121ZM430.562 664.832L430.691 665.315L431.035 665.224L431.061 664.868L430.562 664.832ZM254.502 96.2725L255 96.3233L254.502 96.2725ZM365.601 672.13L366.012 671.846L365.601 672.13ZM381.388 677.939L381.517 678.422L381.388 677.939ZM204.099 26.6832L204.597 26.7339L204.099 26.6832ZM214.863 14.0617L214.735 13.5785L214.863 14.0617ZM241.231 226.159L240.734 226.109L241.231 226.159ZM305.838 484.072L306.249 483.788L305.838 484.072ZM100.397 261.459L100.894 261.509L100.397 261.459ZM51.018 181.844L51.5154 181.894L51.018 181.844ZM165.004 519.371L165.415 519.087L165.004 519.371ZM456.323 312.207C456.586 312.122 456.73 311.84 456.644 311.577C456.559 311.314 456.277 311.171 456.014 311.256L456.169 311.732L456.323 312.207ZM239.997 388.65L240.409 388.366L239.997 388.65ZM-52.6615 416.396L-52.1641 416.447L-52.6615 416.396ZM-41.671 459.249L-41.2594 458.965L-41.671 459.249ZM29.0489 396.856L28.5515 396.805L29.0489 396.856ZM40.0395 439.708L40.451 439.424L40.0395 439.708ZM180.874 404.409L181.285 404.125L180.874 404.409ZM169.883 361.556L169.386 361.506L169.883 361.556ZM88.1727 381.097L88.67 381.148L88.1727 381.097ZM99.1632 423.95L99.5748 423.666L99.1632 423.95ZM-111.785 432.155L-112.283 432.104L-111.785 432.155ZM-100.795 475.007L-100.383 474.723L-100.795 475.007ZM-77.5692 97.2816L-78.0666 97.2308L-112.283 432.104L-111.785 432.155L-111.288 432.206L-77.0718 97.3324L-77.5692 97.2816ZM-100.795 475.007L-101.206 475.291L83.5206 743.013L83.9321 742.729L84.3437 742.445L-100.383 474.723L-100.795 475.007ZM148.894 735.431L148.765 734.947L99.5908 748.054L99.7195 748.537L99.8482 749.02L149.022 735.914L148.894 735.431ZM-17.4211 71.4976L-17.5498 71.0144C-33.1339 75.1681 -54.6152 80.8936 -66.9336 84.177L-66.8049 84.6601L-66.6762 85.1433C-54.3577 81.8599 -32.8764 76.1344 -17.2924 71.9807L-17.4211 71.4976ZM-17.4211 71.4976L-17.9185 71.4468C-19.8213 90.0696 -22.2575 113.913 -24.218 133.101C-25.1983 142.694 -26.0596 151.124 -26.6759 157.156C-26.9841 160.172 -27.2309 162.588 -27.4008 164.25C-27.4856 165.081 -27.5513 165.723 -27.5957 166.158C-27.6179 166.376 -27.6349 166.541 -27.6462 166.652C-27.6519 166.708 -27.6562 166.75 -27.659 166.778C-27.6605 166.792 -27.6615 166.802 -27.6623 166.81C-27.6627 166.813 -27.6629 166.816 -27.6631 166.818C-27.6632 166.818 -27.6633 166.819 -27.6633 166.82C-27.6634 166.82 -27.6634 166.82 -27.166 166.871C-26.6686 166.922 -26.6686 166.922 -26.6685 166.921C-26.6685 166.921 -26.6684 166.92 -26.6683 166.919C-26.6682 166.918 -26.6678 166.914 -26.6675 166.911C-26.6668 166.904 -26.6657 166.893 -26.6643 166.879C-26.6614 166.852 -26.6571 166.809 -26.6514 166.754C-26.6401 166.643 -26.6232 166.477 -26.601 166.26C-26.5565 165.825 -26.4909 165.182 -26.406 164.351C-26.2361 162.689 -25.9893 160.273 -25.6811 157.257C-25.0648 151.226 -24.2035 142.796 -23.2233 133.202C-21.2627 114.015 -18.8265 90.1712 -16.9237 71.5483L-17.4211 71.4976ZM-27.166 166.871L-27.6634 166.82L-53.1589 416.345L-52.6615 416.396L-52.1641 416.447L-26.6686 166.922L-27.166 166.871ZM83.9321 742.729L83.5206 743.013C87.1416 748.261 93.6779 750.665 99.8482 749.02L99.7195 748.537L99.5908 748.054C93.8277 749.59 87.7242 747.344 84.3437 742.445L83.9321 742.729ZM-77.5692 97.2816L-77.0718 97.3324C-76.4764 91.5054 -72.3456 86.6544 -66.6762 85.1433L-66.8049 84.6601L-66.9336 84.177C-73.0048 85.7951 -77.429 90.9906 -78.0666 97.2308L-77.5692 97.2816ZM289.728 700.131L289.599 699.648L240.425 712.755L240.554 713.238L240.682 713.721L289.857 700.615L289.728 700.131ZM123.413 36.1983L123.284 35.7152C107.7 39.8689 86.219 45.5944 73.9006 48.8777L74.0293 49.3609L74.158 49.844C86.4765 46.5607 107.958 40.8352 123.542 36.6815L123.413 36.1983ZM123.413 36.1983L122.916 36.1476C121.013 54.7704 118.577 78.6137 116.616 97.8014C115.636 107.395 114.775 115.825 114.158 121.857C113.85 124.872 113.603 127.288 113.434 128.951C113.349 129.782 113.283 130.424 113.238 130.859C113.216 131.076 113.199 131.242 113.188 131.353C113.182 131.409 113.178 131.45 113.175 131.479C113.174 131.492 113.173 131.504 113.172 131.51C113.172 131.514 113.171 131.517 113.171 131.518C113.171 131.519 113.171 131.52 113.171 131.52C113.171 131.521 113.171 131.521 113.668 131.572C114.166 131.623 114.166 131.622 114.166 131.622C114.166 131.621 114.166 131.621 114.166 131.62C114.166 131.617 114.166 131.616 114.167 131.612C114.167 131.605 114.169 131.594 114.17 131.58C114.173 131.552 114.177 131.51 114.183 131.455C114.194 131.343 114.211 131.178 114.233 130.961C114.278 130.526 114.343 129.883 114.428 129.052C114.598 127.39 114.845 124.974 115.153 121.958C115.769 115.927 116.631 107.497 117.611 97.9029C119.572 78.7153 122.008 54.8719 123.911 36.2491L123.413 36.1983ZM224.766 707.43L224.355 707.714C227.976 712.961 234.512 715.366 240.682 713.721L240.554 713.238L240.425 712.755C234.662 714.291 228.558 712.045 225.178 707.145L224.766 707.43ZM63.265 61.9824L63.7624 62.0332C64.3577 56.2062 68.4886 51.3551 74.158 49.844L74.0293 49.3609L73.9006 48.8777C67.8294 50.4959 63.4052 55.6914 62.7676 61.9316L63.265 61.9824ZM430.562 664.832L431.061 664.868L456.665 311.769L456.166 311.732L455.667 311.696L430.063 664.796L430.562 664.832ZM456.166 311.732L456.591 311.469C448.004 297.624 417.24 247.672 380.014 187.302C342.788 126.933 299.102 56.1469 264.672 0.635524L264.247 0.899121L263.822 1.16272C298.251 56.6729 341.937 127.458 379.162 187.827C416.387 248.196 447.153 298.15 455.741 311.996L456.166 311.732ZM430.562 664.832L430.433 664.349L381.259 677.456L381.388 677.939L381.517 678.422L430.691 665.315L430.562 664.832ZM264.247 0.899121L264.119 0.415971C248.535 4.56967 227.053 10.2952 214.735 13.5785L214.863 14.0617L214.992 14.5448C227.311 11.2615 248.792 5.53597 264.376 1.38227L264.247 0.899121ZM264.247 0.899121L263.75 0.848351C261.847 19.4712 259.411 43.3145 257.45 62.5022C256.47 72.096 255.609 80.5259 254.992 86.5573C254.684 89.5731 254.437 91.9892 254.268 93.6513C254.183 94.4824 254.117 95.1251 254.073 95.5599C254.05 95.7773 254.034 95.9428 254.022 96.0539C254.016 96.1094 254.012 96.1515 254.009 96.1795C254.008 96.1932 254.007 96.2044 254.006 96.2112C254.006 96.2143 254.005 96.2177 254.005 96.2191C254.005 96.22 254.005 96.2207 254.005 96.2211C254.005 96.2215 254.005 96.2218 254.502 96.2725C255 96.3233 255 96.3231 255 96.3226C255 96.3222 255 96.3215 255 96.3207C255 96.319 255.001 96.3161 255.001 96.3127C255.002 96.3054 255.003 96.2953 255.004 96.281C255.007 96.2529 255.011 96.211 255.017 96.1554C255.028 96.0443 255.045 95.8788 255.067 95.6614C255.112 95.2265 255.178 94.584 255.262 93.7529C255.432 92.0907 255.679 89.6746 255.987 86.6589C256.604 80.6274 257.465 72.1975 258.445 62.6037C260.406 43.4161 262.842 19.5727 264.745 0.949889L264.247 0.899121ZM365.601 672.13L365.189 672.414C368.81 677.662 375.346 680.067 381.517 678.422L381.388 677.939L381.259 677.456C375.496 678.992 369.393 676.746 366.012 671.846L365.601 672.13ZM204.099 26.6832L204.597 26.7339C205.192 20.9069 209.323 16.0559 214.992 14.5448L214.863 14.0617L214.735 13.5785C208.664 15.1967 204.239 20.3921 203.602 26.6324L204.099 26.6832ZM-41.671 459.249L-42.0825 459.533L148.482 735.715L148.894 735.431L149.305 735.147L-41.2594 458.965L-41.671 459.249ZM254.502 96.2725L254.005 96.2218L240.734 226.109L241.231 226.159L241.728 226.21L255 96.3233L254.502 96.2725ZM241.231 226.159L240.734 226.109L228.51 345.747L229.007 345.798L229.504 345.849L241.728 226.21L241.231 226.159ZM191.852 146.544L192.277 146.281C168.487 107.924 144.562 69.3491 123.838 35.9347L123.413 36.1983L122.988 36.4619C143.713 69.8763 167.637 108.451 191.427 146.808L191.852 146.544ZM204.099 26.6832L203.602 26.6324L191.355 146.494L191.852 146.544L192.35 146.595L204.597 26.7339L204.099 26.6832ZM239.997 388.65L239.586 388.934L305.426 484.356L305.838 484.072L306.249 483.788L240.409 388.366L239.997 388.65ZM305.838 484.072L305.426 484.356L430.15 665.116L430.562 664.832L430.974 664.548L306.249 483.788L305.838 484.072ZM289.728 700.131L290.226 700.168L299.51 575.661L299.012 575.624L298.513 575.587L289.229 700.094L289.728 700.131ZM299.012 575.624L298.6 575.908L365.189 672.414L365.601 672.13L366.012 671.846L299.423 575.34L299.012 575.624ZM180.874 404.409L180.462 404.693L298.6 575.908L299.012 575.624L299.423 575.34L181.285 404.125L180.874 404.409ZM191.852 146.544L191.355 146.494L169.386 361.506L169.883 361.556L170.381 361.607L192.35 146.595L191.852 146.544ZM113.668 131.572L113.171 131.521L99.8995 261.408L100.397 261.459L100.894 261.509L114.166 131.623L113.668 131.572ZM100.397 261.459L99.8995 261.408L87.6753 381.046L88.1727 381.097L88.67 381.148L100.894 261.509L100.397 261.459ZM51.018 181.844L51.4429 181.58C27.6531 143.223 3.72813 104.648 -16.9962 71.234L-17.4211 71.4976L-17.846 71.7612C2.87833 105.176 26.8033 143.75 50.5931 182.107L51.018 181.844ZM63.265 61.9824L62.7676 61.9316L50.5206 181.793L51.018 181.844L51.5154 181.894L63.7624 62.0332L63.265 61.9824ZM51.018 181.844L50.5206 181.793L28.5515 396.805L29.0489 396.856L29.5462 396.906L51.5154 181.894L51.018 181.844ZM99.1632 423.95L98.7517 424.234L164.592 519.655L165.004 519.371L165.415 519.087L99.5748 423.666L99.1632 423.95ZM165.004 519.371L164.592 519.655L289.316 700.415L289.728 700.131L290.139 699.847L165.415 519.087L165.004 519.371ZM148.894 735.431L149.392 735.468L158.676 610.96L158.177 610.923L157.679 610.886L148.395 735.393L148.894 735.431ZM40.0395 439.708L39.6279 439.992L157.766 611.207L158.177 610.923L158.589 610.639L40.451 439.424L40.0395 439.708ZM158.177 610.923L157.766 611.207L224.355 707.714L224.766 707.43L225.178 707.145L158.589 610.639L158.177 610.923ZM-17.4211 71.4976L-17.9185 71.4468L-27.6634 166.82L-27.166 166.871L-26.6686 166.922L-16.9237 71.5483L-17.4211 71.4976ZM51.018 181.844L51.4429 181.58L-16.9962 71.234L-17.4211 71.4976L-17.846 71.7612L50.5931 182.107L51.018 181.844ZM-17.4211 71.4976L-17.5498 71.0144L-66.9336 84.177L-66.8049 84.6601L-66.6762 85.1433L-17.2924 71.9807L-17.4211 71.4976ZM113.668 131.572L114.166 131.623L123.911 36.2491L123.413 36.1983L122.916 36.1476L113.171 131.521L113.668 131.572ZM123.413 36.1983L123.284 35.7152L73.9006 48.8777L74.0293 49.3609L74.158 49.844L123.542 36.6815L123.413 36.1983ZM264.247 0.899121L264.119 0.415971L214.735 13.5785L214.863 14.0617L214.992 14.5448L264.376 1.38227L264.247 0.899121ZM254.502 96.2725L255 96.3233L264.745 0.949889L264.247 0.899121L263.75 0.848351L254.005 96.2218L254.502 96.2725ZM191.852 146.544L192.277 146.281L123.838 35.9347L123.413 36.1983L122.988 36.4619L191.427 146.808L191.852 146.544ZM456.166 311.732L456.32 312.208L456.323 312.207L456.169 311.732L456.014 311.256L456.012 311.257L456.166 311.732ZM229.007 345.798L228.51 345.747C226.951 361.002 230.878 376.314 239.586 388.934L239.997 388.65L240.409 388.366C231.836 375.941 227.97 360.867 229.504 345.849L229.007 345.798ZM-52.6615 416.396L-53.1589 416.345C-54.7177 431.601 -50.7908 446.912 -42.0825 459.533L-41.671 459.249L-41.2594 458.965C-49.8327 446.54 -53.6987 431.466 -52.1641 416.447L-52.6615 416.396ZM29.0489 396.856L28.5515 396.805C26.9927 412.06 30.9196 427.371 39.6279 439.992L40.0395 439.708L40.451 439.424C31.8777 426.999 28.0117 411.925 29.5462 396.906L29.0489 396.856ZM180.874 404.409L181.285 404.125C172.712 391.7 168.846 376.626 170.381 361.607L169.883 361.556L169.386 361.506C167.827 376.761 171.754 392.072 180.462 404.693L180.874 404.409ZM88.1727 381.097L87.6753 381.046C86.1165 396.302 90.0434 411.613 98.7517 424.234L99.1632 423.95L99.5748 423.666C91.0015 411.241 87.1354 396.167 88.67 381.148L88.1727 381.097ZM-111.785 432.155L-112.283 432.104C-113.841 447.359 -109.915 462.671 -101.206 475.291L-100.795 475.007L-100.383 474.723C-108.956 462.298 -112.822 447.224 -111.288 432.206L-111.785 432.155Z" fill="#F2F2F2" fill-opacity="0.1"/>
</g>
</svg>
