<svg width="422" height="610" viewBox="0 0 422 610" fill="none" xmlns="http://www.w3.org/2000/svg">
<g opacity="0.4">
<path d="M337.792 371.816C329.151 359.293 325.255 344.1 326.802 328.963L338.366 215.781L351.039 91.7553C351.039 91.7553 356.71 36.2504 360.344 0.685363C426.095 106.697 527.203 271.052 543.603 297.493L519.154 634.66L400.058 462.056L337.792 371.816Z" fill="#121212"/>
<path d="M91.385 68.0982L82.0798 159.168L57.8428 396.376C56.2961 411.513 60.1926 426.706 68.8334 439.229L250.195 702.073L259.06 583.184L146.857 420.57C138.216 408.047 134.32 392.854 135.866 377.717L156.736 173.465L91.385 68.0982Z" fill="#121212"/>
<path d="M225.864 34.3918L216.559 125.462L203.887 249.488L192.322 362.67C190.775 377.807 194.672 392.999 203.313 405.522L265.578 495.762L384.675 668.366L393.539 549.477L281.336 386.863C272.695 374.34 268.799 359.148 270.346 344.011L291.215 139.759L225.864 34.3918Z" fill="#0D0D0D"/>
<path d="M91.385 68.0982L91.8098 67.8346C91.6938 67.6475 91.469 67.5584 91.2563 67.6151L91.385 68.0982ZM250.195 702.073L250.324 702.556L250.667 702.465L250.694 702.11L250.195 702.073ZM82.0798 159.168L82.5772 159.219L82.0798 159.168ZM188.165 709.042L187.753 709.326L188.165 709.042ZM203.24 714.588L203.369 715.071L203.24 714.588ZM33.9509 92.7188L33.4535 92.6681L33.9509 92.7188ZM44.2294 80.6668L44.1007 80.1837L44.2294 80.6668ZM225.864 34.3918L226.289 34.1282C226.173 33.9411 225.948 33.8519 225.736 33.9086L225.864 34.3918ZM384.675 668.366L384.803 668.85L385.147 668.758L385.173 668.404L384.675 668.366ZM216.559 125.462L217.057 125.512L216.559 125.462ZM322.644 675.335L323.056 675.051L322.644 675.335ZM337.719 680.882L337.848 681.365L337.719 680.882ZM168.43 59.0124L167.933 58.9616L168.43 59.0124ZM178.709 46.9604L178.58 46.4773L178.709 46.9604ZM360.344 0.685363L360.769 0.421768C360.653 0.234658 360.428 0.145505 360.215 0.202213L360.344 0.685363ZM519.154 634.66L519.283 635.143L519.627 635.052L519.653 634.696L519.154 634.66ZM351.039 91.7553L351.536 91.8061L351.039 91.7553ZM457.124 641.629L457.535 641.345L457.124 641.629ZM472.199 647.175L472.327 647.659L472.199 647.175ZM302.91 25.306L303.407 25.3567L302.91 25.306ZM313.188 13.254L313.06 12.7708L313.188 13.254ZM338.366 215.781L337.869 215.73L338.366 215.781ZM400.058 462.056L400.469 461.772L400.058 462.056ZM203.887 249.488L204.384 249.538L203.887 249.488ZM156.736 173.465L157.233 173.516L156.736 173.465ZM265.578 495.762L265.99 495.478L265.578 495.762ZM543.76 297.968C544.022 297.882 544.166 297.6 544.081 297.338C543.996 297.075 543.713 296.931 543.451 297.017L543.605 297.492L543.76 297.968ZM337.792 371.816L338.204 371.532L337.792 371.816ZM57.8428 396.376L58.3402 396.427L57.8428 396.376ZM68.8334 439.229L68.4219 439.513L68.8334 439.229ZM146.857 420.57L147.268 420.286L146.857 420.57ZM281.336 386.863L281.748 386.579L281.336 386.863ZM192.322 362.67L191.825 362.619L192.322 362.67ZM203.313 405.522L203.724 405.238L203.313 405.522ZM1.38685 411.423L0.889517 411.373L1.38685 411.423ZM12.3775 454.276L11.966 454.56L12.3775 454.276ZM33.9509 92.7188L33.4535 92.6681L0.889517 411.373L1.38685 411.423L1.88425 411.474L34.4483 92.7696L33.9509 92.7188ZM12.3775 454.276L11.966 454.56L187.753 709.326L188.165 709.042L188.576 708.758L12.789 453.992L12.3775 454.276ZM250.195 702.073L250.066 701.59L203.111 714.105L203.24 714.588L203.369 715.071L250.324 702.556L250.195 702.073ZM91.385 68.0982L91.2563 67.6151C76.3754 71.5814 55.8634 77.0485 44.1007 80.1837L44.2294 80.6668L44.3581 81.15C56.1208 78.0148 76.6328 72.5477 91.5137 68.5814L91.385 68.0982ZM91.385 68.0982L90.8876 68.0475C89.0706 85.83 86.7443 108.597 84.8723 126.919C83.9362 136.08 83.1138 144.13 82.5253 149.889C82.2311 152.769 81.9954 155.076 81.8332 156.663C81.7521 157.457 81.6894 158.07 81.647 158.485C81.6258 158.693 81.6096 158.851 81.5988 158.957C81.5934 159.01 81.5893 159.05 81.5865 159.077C81.5852 159.09 81.5841 159.1 81.5834 159.107C81.5831 159.11 81.5828 159.113 81.5827 159.115C81.5826 159.116 81.5825 159.116 81.5825 159.117C81.5824 159.117 81.5824 159.117 82.0798 159.168C82.5772 159.219 82.5772 159.219 82.5772 159.218C82.5773 159.218 82.5774 159.217 82.5775 159.216C82.5776 159.215 82.5779 159.212 82.5782 159.209C82.5789 159.202 82.58 159.192 82.5813 159.179C82.584 159.152 82.5882 159.112 82.5936 159.059C82.6044 158.952 82.6206 158.795 82.6418 158.587C82.6842 158.172 82.7469 157.558 82.828 156.764C82.9901 155.177 83.2259 152.87 83.5201 149.991C84.1086 144.231 84.931 136.182 85.8671 127.021C87.7391 108.699 90.0654 85.9315 91.8824 68.149L91.385 68.0982ZM82.0798 159.168L81.5824 159.117L57.3454 396.325L57.8428 396.376L58.3402 396.427L82.5772 159.219L82.0798 159.168ZM188.165 709.042L187.753 709.326C191.216 714.345 197.468 716.644 203.369 715.071L203.24 714.588L203.111 714.105C197.617 715.569 191.799 713.428 188.576 708.758L188.165 709.042ZM33.9509 92.7188L34.4483 92.7696C35.0159 87.2149 38.9537 82.5905 44.3581 81.15L44.2294 80.6668L44.1007 80.1837C38.2945 81.7313 34.0633 86.7001 33.4535 92.6681L33.9509 92.7188ZM384.675 668.366L384.546 667.883L337.591 680.399L337.719 680.882L337.848 681.365L384.803 668.85L384.675 668.366ZM225.864 34.3918L225.736 33.9086C210.855 37.8749 190.343 43.3421 178.58 46.4773L178.709 46.9604L178.838 47.4436C190.6 44.3084 211.112 38.8412 225.993 34.8749L225.864 34.3918ZM225.864 34.3918L225.367 34.341C223.55 52.1235 221.224 74.891 219.352 93.2129C218.416 102.374 217.593 110.423 217.005 116.183C216.711 119.062 216.475 121.369 216.313 122.957C216.232 123.75 216.169 124.364 216.126 124.779C216.105 124.986 216.089 125.145 216.078 125.251C216.073 125.303 216.069 125.344 216.066 125.371C216.065 125.384 216.064 125.394 216.063 125.401C216.063 125.404 216.062 125.407 216.062 125.408C216.062 125.409 216.062 125.41 216.062 125.41C216.062 125.411 216.062 125.411 216.559 125.462C217.057 125.512 217.057 125.512 217.057 125.512C217.057 125.511 217.057 125.511 217.057 125.51C217.057 125.508 217.057 125.506 217.058 125.502C217.058 125.496 217.059 125.485 217.061 125.472C217.064 125.445 217.068 125.405 217.073 125.352C217.084 125.246 217.1 125.088 217.121 124.88C217.164 124.465 217.226 123.852 217.307 123.058C217.47 121.471 217.705 119.164 218 116.284C218.588 110.525 219.41 102.475 220.347 93.3144C222.219 74.9925 224.545 52.2251 226.362 34.4426L225.864 34.3918ZM322.644 675.335L322.233 675.619C325.696 680.638 331.947 682.938 337.848 681.365L337.719 680.882L337.591 680.399C332.097 681.863 326.278 679.722 323.056 675.051L322.644 675.335ZM168.43 59.0124L168.928 59.0632C169.495 53.5084 173.433 48.884 178.838 47.4436L178.709 46.9604L178.58 46.4773C172.774 48.0248 168.543 52.9936 167.933 58.9616L168.43 59.0124ZM519.154 634.66L519.653 634.696L544.101 297.529L543.603 297.493L543.104 297.457L518.655 634.624L519.154 634.66ZM543.603 297.493L544.027 297.23C535.828 284.01 506.452 236.312 470.906 178.666C435.36 121.02 393.644 53.4283 360.769 0.421768L360.344 0.685363L359.919 0.948958C392.794 53.9543 434.508 121.545 470.054 179.191C505.6 236.835 534.977 284.535 543.178 297.757L543.603 297.493ZM519.154 634.66L519.025 634.177L472.07 646.692L472.199 647.175L472.327 647.659L519.283 635.143L519.154 634.66ZM360.344 0.685363L360.215 0.202213C345.334 4.16849 324.822 9.63566 313.06 12.7708L313.188 13.254L313.317 13.7371C325.08 10.602 345.592 5.13479 360.472 1.16851L360.344 0.685363ZM360.344 0.685363L359.846 0.634595C358.029 18.4171 355.703 41.1846 353.831 59.5064C352.895 68.6674 352.073 76.7169 351.484 82.4762C351.19 85.3558 350.954 87.6629 350.792 89.2501C350.711 90.0437 350.648 90.6573 350.606 91.0725C350.585 91.2801 350.568 91.4381 350.558 91.5442C350.552 91.5973 350.548 91.6373 350.545 91.6642C350.544 91.6779 350.543 91.6873 350.542 91.6944C350.542 91.6981 350.542 91.7 350.541 91.702C350.541 91.7028 350.541 91.7035 350.541 91.7039C350.541 91.7043 350.541 91.7045 351.039 91.7553C351.536 91.8061 351.536 91.8059 351.536 91.8054C351.536 91.805 351.536 91.8044 351.536 91.8035C351.536 91.8018 351.537 91.7994 351.537 91.7959C351.538 91.7893 351.539 91.779 351.54 91.7657C351.543 91.7388 351.547 91.6989 351.552 91.6458C351.563 91.5396 351.579 91.3817 351.601 91.174C351.643 90.7589 351.706 90.1452 351.787 89.3516C351.949 87.7644 352.185 85.4574 352.479 82.5777C353.067 76.8184 353.89 68.7689 354.826 59.608C356.698 41.2861 359.024 18.5186 360.841 0.736133L360.344 0.685363ZM457.124 641.629L456.712 641.913C460.175 646.932 466.426 649.231 472.327 647.659L472.199 647.175L472.07 646.692C466.576 648.157 460.758 646.015 457.535 641.345L457.124 641.629ZM302.91 25.306L303.407 25.3567C303.975 19.802 307.912 15.1776 313.317 13.7371L313.188 13.254L313.06 12.7708C307.253 14.3184 303.022 19.2872 302.412 25.2552L302.91 25.306ZM68.8334 439.229L68.4219 439.513L249.784 702.357L250.195 702.073L250.607 701.789L69.2449 438.945L68.8334 439.229ZM351.039 91.7553L350.541 91.7045L337.869 215.73L338.366 215.781L338.863 215.832L351.536 91.8061L351.039 91.7553ZM338.366 215.781L337.869 215.73L326.304 328.912L326.802 328.963L327.299 329.014L338.863 215.832L338.366 215.781ZM291.215 139.759L291.64 139.495C268.924 102.869 246.079 66.0348 226.289 34.1282L225.864 34.3918L225.44 34.6554C245.229 66.562 268.074 103.396 290.79 140.022L291.215 139.759ZM302.91 25.306L302.412 25.2552L290.718 139.708L291.215 139.759L291.713 139.81L303.407 25.3567L302.91 25.306ZM337.792 371.816L337.381 372.1L399.646 462.34L400.058 462.056L400.469 461.772L338.204 371.532L337.792 371.816ZM400.058 462.056L399.646 462.34L518.742 634.944L519.154 634.66L519.565 634.376L400.469 461.772L400.058 462.056ZM384.675 668.366L385.173 668.404L394.038 549.514L393.539 549.477L393.041 549.44L384.176 668.329L384.675 668.366ZM393.539 549.477L393.128 549.761L456.712 641.913L457.124 641.629L457.535 641.345L393.951 549.193L393.539 549.477ZM281.336 386.863L280.925 387.147L393.128 549.761L393.539 549.477L393.951 549.193L281.748 386.579L281.336 386.863ZM291.215 139.759L290.718 139.708L269.848 343.96L270.346 344.011L270.843 344.061L291.713 139.81L291.215 139.759ZM216.559 125.462L216.062 125.411L203.389 249.437L203.887 249.488L204.384 249.538L217.057 125.512L216.559 125.462ZM203.887 249.488L203.389 249.437L191.825 362.619L192.322 362.67L192.82 362.72L204.384 249.538L203.887 249.488ZM156.736 173.465L157.161 173.202C134.444 136.575 111.599 99.7413 91.8098 67.8346L91.385 68.0982L90.9601 68.3618C110.749 100.268 133.595 137.103 156.311 173.729L156.736 173.465ZM168.43 59.0124L167.933 58.9616L156.239 173.414L156.736 173.465L157.233 173.516L168.928 59.0632L168.43 59.0124ZM156.736 173.465L156.239 173.414L135.369 377.666L135.866 377.717L136.364 377.768L157.233 173.516L156.736 173.465ZM203.313 405.522L202.901 405.806L265.167 496.046L265.578 495.762L265.99 495.478L203.724 405.238L203.313 405.522ZM265.578 495.762L265.167 496.046L384.263 668.651L384.675 668.366L385.086 668.082L265.99 495.478L265.578 495.762ZM250.195 702.073L250.694 702.11L259.559 583.221L259.06 583.184L258.561 583.147L249.697 702.036L250.195 702.073ZM146.857 420.57L146.445 420.854L258.648 583.468L259.06 583.184L259.471 582.9L147.268 420.286L146.857 420.57ZM259.06 583.184L258.648 583.468L322.233 675.619L322.644 675.335L323.056 675.051L259.471 582.9L259.06 583.184ZM91.385 68.0982L90.8876 68.0475L81.5824 159.117L82.0798 159.168L82.5772 159.219L91.8824 68.149L91.385 68.0982ZM156.736 173.465L157.161 173.202L91.8098 67.8346L91.385 68.0982L90.9601 68.3618L156.311 173.729L156.736 173.465ZM91.385 68.0982L91.2563 67.6151L44.1007 80.1837L44.2294 80.6668L44.3581 81.15L91.5137 68.5814L91.385 68.0982ZM216.559 125.462L217.057 125.512L226.362 34.4426L225.864 34.3918L225.367 34.341L216.062 125.411L216.559 125.462ZM225.864 34.3918L225.736 33.9086L178.58 46.4773L178.709 46.9604L178.838 47.4436L225.993 34.8749L225.864 34.3918ZM360.344 0.685363L360.215 0.202213L313.06 12.7708L313.188 13.254L313.317 13.7371L360.472 1.16851L360.344 0.685363ZM351.039 91.7553L351.536 91.8061L360.841 0.736133L360.344 0.685363L359.846 0.634595L350.541 91.7045L351.039 91.7553ZM291.215 139.759L291.64 139.495L226.289 34.1282L225.864 34.3918L225.44 34.6554L290.79 140.022L291.215 139.759ZM543.603 297.493L543.757 297.969L543.76 297.968L543.605 297.492L543.451 297.017L543.448 297.018L543.603 297.493ZM326.802 328.963L326.304 328.912C324.745 344.168 328.672 359.479 337.381 372.1L337.792 371.816L338.204 371.532C329.63 359.107 325.764 344.033 327.299 329.014L326.802 328.963ZM57.8428 396.376L57.3454 396.325C55.7866 411.581 59.7136 426.892 68.4219 439.513L68.8334 439.229L69.2449 438.945C60.6716 426.519 56.8056 411.446 58.3402 396.427L57.8428 396.376ZM135.866 377.717L135.369 377.666C133.81 392.922 137.737 408.233 146.445 420.854L146.857 420.57L147.268 420.286C138.695 407.861 134.829 392.787 136.364 377.768L135.866 377.717ZM281.336 386.863L281.748 386.579C273.175 374.154 269.308 359.08 270.843 344.061L270.346 344.011L269.848 343.96C268.29 359.215 272.216 374.526 280.925 387.147L281.336 386.863ZM192.322 362.67L191.825 362.619C190.266 377.874 194.193 393.185 202.901 405.806L203.313 405.522L203.724 405.238C195.151 392.813 191.285 377.739 192.82 362.72L192.322 362.67ZM1.38685 411.423L0.889517 411.373C-0.669249 426.628 3.25767 441.939 11.966 454.56L12.3775 454.276L12.789 453.992C4.21574 441.567 0.349669 426.493 1.88425 411.474L1.38685 411.423Z" fill="#F2F2F2" fill-opacity="0.1"/>
</g>
</svg>
