<svg width="468" height="691" viewBox="0 0 468 691" fill="none" xmlns="http://www.w3.org/2000/svg">
<g opacity="0.4">
<path d="M447.831 256.522C435.149 248.116 425.876 235.467 421.675 220.842L384.068 89.9134L344.024 -49.5014C344.024 -49.5014 326.103 -111.893 314.62 -151.871C431.543 -65.8813 611.92 67.7905 641.083 89.238L760.745 463.907L557.371 329.119L447.831 256.522Z" fill="#121212"/>
<path d="M53.3976 37.4361L82.8015 139.806L160.453 410.15C164.654 424.774 173.927 437.424 186.609 445.829L499.523 653.214L457.592 520.995L262.777 391.881C250.094 383.475 240.821 370.826 236.621 356.201L169.61 122.903L53.3976 37.4361Z" fill="#121212"/>
<path d="M184.009 -57.2175L213.413 45.1522L253.457 184.567L291.064 315.496C295.265 330.121 304.538 342.77 317.22 351.175L426.759 423.773L630.134 558.561L588.203 426.342L393.388 297.227C380.706 288.822 371.433 276.172 367.232 261.548L300.221 28.2491L184.009 -57.2175Z" fill="#0D0D0D"/>
<path d="M53.3976 37.4361L53.6938 37.0333C53.5164 36.9028 53.2746 36.9038 53.0982 37.0356L53.3976 37.4361ZM499.523 653.214L499.822 653.615L500.107 653.402L499.999 653.063L499.523 653.214ZM82.8015 139.806L83.282 139.668L82.8015 139.806ZM435.561 687.611L435.284 688.028L435.561 687.611ZM454.241 687.069L454.541 687.47L454.241 687.069ZM2.04515 88.9024L1.56466 89.0405L2.04515 88.9024ZM7.92312 71.4358L7.62377 71.0353L7.92312 71.4358ZM184.009 -57.2175L184.305 -57.6203C184.128 -57.7508 183.886 -57.7498 183.709 -57.618L184.009 -57.2175ZM630.134 558.561L630.433 558.961L630.718 558.748L630.61 558.409L630.134 558.561ZM213.413 45.1522L213.893 45.0141L213.413 45.1522ZM566.172 592.957L566.448 592.54L566.172 592.957ZM584.853 592.416L585.152 592.816L584.853 592.416ZM132.656 -5.75115L132.176 -5.61307L132.656 -5.75115ZM138.534 -23.2178L138.235 -23.6183L138.534 -23.2178ZM314.62 -151.871L314.916 -152.274C314.739 -152.404 314.497 -152.403 314.32 -152.271L314.62 -151.871ZM760.745 463.907L761.044 464.307L761.33 464.094L761.221 463.755L760.745 463.907ZM344.024 -49.5014L344.504 -49.6394L344.024 -49.5014ZM696.783 498.304L697.059 497.887L696.783 498.304ZM715.464 497.762L715.763 498.163L715.464 497.762ZM263.267 -100.405L263.748 -100.543L263.267 -100.405ZM269.145 -117.871L268.846 -118.272L269.145 -117.871ZM384.068 89.9134L383.588 90.0515L384.068 89.9134ZM557.371 329.119L557.647 328.703L557.371 329.119ZM253.457 184.567L253.938 184.429L253.457 184.567ZM169.61 122.903L170.09 122.765L169.61 122.903ZM426.759 423.773L427.036 423.356L426.759 423.773ZM641.406 89.6197C641.618 89.4427 641.647 89.1274 641.47 88.9154C641.293 88.7034 640.977 88.675 640.765 88.852L641.086 89.2359L641.406 89.6197ZM421.675 220.842L421.195 220.98L421.675 220.842ZM160.453 410.15L160.934 410.011L160.453 410.15ZM186.609 445.829L186.333 446.246L186.609 445.829ZM236.621 356.201L236.14 356.339L236.621 356.201ZM262.777 391.881L262.5 392.297L262.777 391.881ZM291.064 315.496L290.584 315.634L291.064 315.496ZM317.22 351.175L317.496 350.758L317.22 351.175ZM106.01 450.855L106.49 450.717L106.01 450.855ZM2.04515 88.9024L1.56466 89.0405L105.529 450.993L106.01 450.855L106.49 450.717L2.52568 88.7643L2.04515 88.9024ZM132.166 486.534L131.889 486.951L435.284 688.028L435.561 687.611L435.837 687.194L132.442 486.117L132.166 486.534ZM499.523 653.214L499.223 652.814L453.942 686.669L454.241 687.069L454.541 687.47L499.822 653.615L499.523 653.214ZM53.3976 37.4361L53.0982 37.0356C38.7479 47.7649 18.9671 62.5543 7.62377 71.0353L7.92312 71.4358L8.22246 71.8363C19.5658 63.3553 39.3466 48.5659 53.6969 37.8366L53.3976 37.4361ZM53.3976 37.4361L52.917 37.5742C58.6585 57.5631 66.0095 83.1555 71.9251 103.751C74.8829 114.048 77.4819 123.097 79.3414 129.57C80.2711 132.807 81.016 135.401 81.5285 137.185C81.7847 138.077 81.9828 138.767 82.1169 139.233C82.1839 139.467 82.2349 139.644 82.2692 139.764C82.2863 139.823 82.2993 139.868 82.3079 139.898C82.3123 139.914 82.3154 139.925 82.3177 139.932C82.3188 139.936 82.3196 139.939 82.3201 139.941C82.3204 139.942 82.3206 139.943 82.3208 139.943C82.3209 139.944 82.3209 139.944 82.8015 139.806C83.282 139.668 83.282 139.667 83.2818 139.667C83.2817 139.666 83.2815 139.666 83.2812 139.665C83.2806 139.663 83.2799 139.66 83.2787 139.656C83.2766 139.649 83.2732 139.637 83.269 139.622C83.2603 139.592 83.2474 139.547 83.2303 139.487C83.196 139.368 83.145 139.191 83.0779 138.957C82.9439 138.491 82.7458 137.801 82.4895 136.909C81.9771 135.125 81.2322 132.531 80.3024 129.294C78.4429 122.82 75.844 113.772 72.8862 103.475C66.9705 82.8794 59.6196 57.287 53.8781 37.2981L53.3976 37.4361ZM82.8015 139.806L82.3209 139.944L159.972 410.288L160.453 410.15L160.934 410.011L83.282 139.668L82.8015 139.806ZM435.561 687.611L435.284 688.028C441.169 691.928 448.878 691.704 454.541 687.47L454.241 687.069L453.942 686.669C448.617 690.651 441.369 690.86 435.837 687.194L435.561 687.611ZM2.04515 88.9024L2.52568 88.7643C0.722865 82.4877 2.98344 75.7533 8.22246 71.8363L7.92312 71.4358L7.62377 71.0353C2.05175 75.2013 -0.352908 82.3646 1.56466 89.0405L2.04515 88.9024ZM630.134 558.561L629.835 558.16L584.553 592.015L584.853 592.416L585.152 592.816L630.433 558.961L630.134 558.561ZM184.009 -57.2175L183.709 -57.618C169.359 -46.8887 149.578 -32.0993 138.235 -23.6183L138.534 -23.2178L138.834 -22.8173C150.177 -31.2983 169.958 -46.0877 184.308 -56.817L184.009 -57.2175ZM184.009 -57.2175L183.528 -57.0794C189.27 -37.0905 196.621 -11.4981 202.536 9.09711C205.494 19.3947 208.093 28.443 209.952 34.9169C210.882 38.1538 211.627 40.7472 212.14 42.5313C212.396 43.4234 212.594 44.113 212.728 44.5798C212.795 44.8131 212.846 44.9909 212.88 45.1101C212.897 45.17 212.91 45.2145 212.919 45.2449C212.923 45.2603 212.926 45.2709 212.929 45.2789C212.93 45.2825 212.931 45.2856 212.931 45.2874C212.931 45.2884 212.932 45.2891 212.932 45.2895C212.932 45.29 212.932 45.2903 213.413 45.1522C213.893 45.0141 213.893 45.0139 213.893 45.0134C213.893 45.0129 213.893 45.0122 213.892 45.0112C213.891 45.007 213.892 45.0089 213.89 45.0027C213.888 44.9954 213.884 44.9835 213.88 44.9687C213.871 44.9387 213.858 44.8934 213.841 44.8339C213.807 44.7148 213.756 44.5369 213.689 44.3036C213.555 43.8369 213.357 43.1472 213.101 42.2551C212.588 40.471 211.843 37.8777 210.914 34.6407C209.054 28.1668 206.455 19.1185 203.497 8.82096C197.582 -11.7742 190.231 -37.3666 184.489 -57.3556L184.009 -57.2175ZM566.172 592.957L565.895 593.374C571.78 597.274 579.489 597.05 585.152 592.816L584.853 592.416L584.553 592.015C579.228 595.997 571.98 596.207 566.448 592.54L566.172 592.957ZM132.656 -5.75115L133.137 -5.88923C131.334 -12.1658 133.595 -18.9002 138.834 -22.8173L138.534 -23.2178L138.235 -23.6183C132.663 -19.4522 130.258 -12.2889 132.176 -5.61307L132.656 -5.75115ZM760.745 463.907L761.221 463.755L641.559 89.0858L641.083 89.238L640.607 89.3902L760.269 464.059L760.745 463.907ZM641.083 89.238L641.379 88.8352C626.799 78.1119 574.415 39.3329 511.059 -7.51524C447.704 -54.3629 373.378 -109.279 314.916 -152.274L314.62 -151.871L314.323 -151.468C372.785 -108.474 447.109 -53.5587 510.464 -6.71109C573.819 40.1359 626.205 78.9166 640.787 89.6408L641.083 89.238ZM760.745 463.907L760.446 463.506L715.164 497.362L715.464 497.762L715.763 498.163L761.044 464.307L760.745 463.907ZM314.62 -151.871L314.32 -152.271C299.97 -141.542 280.189 -126.753 268.846 -118.272L269.145 -117.871L269.445 -117.471C280.788 -125.952 300.569 -140.741 314.919 -151.471L314.62 -151.871ZM314.62 -151.871L314.139 -151.733C319.881 -131.744 327.232 -106.152 333.147 -85.5564C336.105 -75.2588 338.704 -66.2105 340.563 -59.7367C341.493 -56.4997 342.238 -53.9064 342.751 -52.1223C343.007 -51.2302 343.205 -50.5405 343.339 -50.0737C343.406 -49.8403 343.457 -49.6628 343.491 -49.5435C343.508 -49.4837 343.521 -49.4389 343.53 -49.4087C343.534 -49.3936 343.538 -49.3823 343.54 -49.3747C343.541 -49.371 343.542 -49.3679 343.542 -49.3661C343.543 -49.3652 343.543 -49.3645 343.543 -49.364C343.543 -49.3635 343.543 -49.3633 344.024 -49.5014C344.504 -49.6394 344.504 -49.6397 344.504 -49.6401C344.504 -49.6406 344.504 -49.6413 344.503 -49.6423C344.503 -49.6437 344.502 -49.6475 344.501 -49.6508C344.499 -49.6583 344.495 -49.6698 344.491 -49.6848C344.482 -49.7149 344.469 -49.76 344.452 -49.8196C344.418 -49.9389 344.367 -50.1165 344.3 -50.3499C344.166 -50.8166 343.968 -51.5064 343.712 -52.3984C343.199 -54.1825 342.454 -56.7759 341.525 -60.0128C339.665 -66.4867 337.066 -75.535 334.108 -85.8326C328.193 -106.428 320.842 -132.02 315.1 -152.009L314.62 -151.871ZM696.783 498.304L696.506 498.72C702.391 502.621 710.1 502.397 715.763 498.163L715.464 497.762L715.164 497.362C709.839 501.344 702.591 501.553 697.059 497.887L696.783 498.304ZM263.267 -100.405L263.748 -100.543C261.945 -106.819 264.206 -113.554 269.445 -117.471L269.145 -117.871L268.846 -118.272C263.274 -114.106 260.869 -106.943 262.787 -100.267L263.267 -100.405ZM186.609 445.829L186.333 446.246L499.247 653.631L499.523 653.214L499.799 652.797L186.885 445.412L186.609 445.829ZM344.024 -49.5014L343.543 -49.3633L383.588 90.0515L384.068 89.9134L384.549 89.7753L344.504 -49.6394L344.024 -49.5014ZM384.068 89.9134L383.588 90.0515L421.195 220.98L421.675 220.842L422.156 220.704L384.549 89.7753L384.068 89.9134ZM300.221 28.2491L300.517 27.8463C260.121 -1.86242 219.496 -31.7398 184.305 -57.6203L184.009 -57.2175L183.712 -56.8146C218.903 -30.9341 259.529 -1.05672 299.925 28.652L300.221 28.2491ZM263.267 -100.405L262.787 -100.267L299.74 28.3872L300.221 28.2491L300.701 28.1111L263.748 -100.543L263.267 -100.405ZM447.831 256.522L447.555 256.938L557.094 329.536L557.371 329.119L557.647 328.703L448.107 256.105L447.831 256.522ZM557.371 329.119L557.094 329.536L760.469 464.324L760.745 463.907L761.021 463.49L557.647 328.703L557.371 329.119ZM630.134 558.561L630.61 558.409L588.68 426.191L588.203 426.342L587.726 426.493L629.657 558.712L630.134 558.561ZM588.203 426.342L587.927 426.759L696.506 498.72L696.783 498.304L697.059 497.887L588.479 425.925L588.203 426.342ZM393.388 297.227L393.112 297.644L587.927 426.759L588.203 426.342L588.479 425.925L393.664 296.81L393.388 297.227ZM300.221 28.2491L299.74 28.3872L366.751 261.686L367.232 261.548L367.712 261.41L300.701 28.1111L300.221 28.2491ZM213.413 45.1522L212.932 45.2903L252.977 184.705L253.457 184.567L253.938 184.429L213.893 45.0141L213.413 45.1522ZM253.457 184.567L252.977 184.705L290.584 315.634L291.064 315.496L291.545 315.358L253.938 184.429L253.457 184.567ZM169.61 122.903L169.906 122.5C129.51 92.7911 88.8845 62.9138 53.6938 37.0333L53.3976 37.4361L53.1014 37.839C88.2921 63.7195 128.918 93.5969 169.314 123.306L169.61 122.903ZM132.656 -5.75115L132.176 -5.61307L169.129 123.041L169.61 122.903L170.09 122.765L133.137 -5.88923L132.656 -5.75115ZM169.61 122.903L169.129 123.041L236.14 356.339L236.621 356.201L237.101 356.063L170.09 122.765L169.61 122.903ZM317.22 351.175L316.944 351.592L426.483 424.19L426.759 423.773L427.036 423.356L317.496 350.758L317.22 351.175ZM426.759 423.773L426.483 424.19L629.858 558.977L630.134 558.561L630.41 558.144L427.036 423.356L426.759 423.773ZM499.523 653.214L499.999 653.063L458.069 520.844L457.592 520.995L457.115 521.147L499.046 653.365L499.523 653.214ZM262.777 391.881L262.5 392.297L457.316 521.412L457.592 520.995L457.868 520.579L263.053 391.464L262.777 391.881ZM457.592 520.995L457.316 521.412L565.895 593.374L566.172 592.957L566.448 592.54L457.868 520.579L457.592 520.995ZM53.3976 37.4361L52.917 37.5742L82.3209 139.944L82.8015 139.806L83.282 139.668L53.8781 37.2981L53.3976 37.4361ZM169.61 122.903L169.906 122.5L53.6938 37.0333L53.3976 37.4361L53.1014 37.839L169.314 123.306L169.61 122.903ZM53.3976 37.4361L53.0982 37.0356L7.62377 71.0353L7.92312 71.4358L8.22246 71.8363L53.6969 37.8366L53.3976 37.4361ZM213.413 45.1522L213.893 45.0141L184.489 -57.3556L184.009 -57.2175L183.528 -57.0794L212.932 45.2903L213.413 45.1522ZM184.009 -57.2175L183.709 -57.618L138.235 -23.6183L138.534 -23.2178L138.834 -22.8173L184.308 -56.817L184.009 -57.2175ZM314.62 -151.871L314.32 -152.271L268.846 -118.272L269.145 -117.871L269.445 -117.471L314.919 -151.471L314.62 -151.871ZM344.024 -49.5014L344.504 -49.6394L315.1 -152.009L314.62 -151.871L314.139 -151.733L343.543 -49.3633L344.024 -49.5014ZM300.221 28.2491L300.517 27.8463L184.305 -57.6203L184.009 -57.2175L183.712 -56.8146L299.925 28.652L300.221 28.2491ZM641.083 89.238L641.404 89.6218L641.406 89.6197L641.086 89.2359L640.765 88.852L640.763 88.8542L641.083 89.238ZM421.675 220.842L421.195 220.98C425.428 235.719 434.774 248.468 447.555 256.938L447.831 256.522L448.107 256.105C435.524 247.765 426.324 235.215 422.156 220.704L421.675 220.842ZM160.453 410.15L159.972 410.288C164.206 425.027 173.551 437.775 186.333 446.246L186.609 445.829L186.885 445.412C174.302 437.072 165.101 424.522 160.934 410.011L160.453 410.15ZM236.621 356.201L236.14 356.339C240.374 371.078 249.719 383.827 262.5 392.297L262.777 391.881L263.053 391.464C250.47 383.124 241.269 370.574 237.101 356.063L236.621 356.201ZM393.388 297.227L393.664 296.81C381.081 288.471 371.88 275.92 367.712 261.41L367.232 261.548L366.751 261.686C370.985 276.425 380.33 289.173 393.112 297.644L393.388 297.227ZM291.064 315.496L290.584 315.634C294.817 330.373 304.163 343.121 316.944 351.592L317.22 351.175L317.496 350.758C304.913 342.419 295.712 329.868 291.545 315.358L291.064 315.496ZM106.01 450.855L105.529 450.993C109.763 465.732 119.108 478.48 131.889 486.951L132.166 486.534L132.442 486.117C119.859 477.778 110.658 465.227 106.49 450.717L106.01 450.855Z" fill="#F2F2F2" fill-opacity="0.1"/>
</g>
</svg>
