<svg width="206" height="212" viewBox="0 0 206 212" fill="none" xmlns="http://www.w3.org/2000/svg">
<path d="M174.812 156.853C162.13 148.448 152.857 135.799 148.656 121.174L139.232 88.3657L124.771 38.0179C124.771 38.0179 118.299 15.4859 114.152 1.04844C156.377 32.1025 221.518 80.3763 232.05 88.1218L275.264 223.429L201.818 174.752L174.812 156.853Z" fill="#121212" fill-opacity="0.3"/>
<path d="M19.8149 69.4142L30.4337 106.384L54.3189 189.54C58.5196 204.165 67.7926 216.814 80.4748 225.219L180.927 291.794L165.784 244.045L107.982 205.736C95.2996 197.331 86.0265 184.682 81.8259 170.057L61.7834 100.279L19.8149 69.4142Z" fill="#121212" fill-opacity="0.3"/>
<path d="M66.9834 35.2313L77.6022 72.2008L92.0638 122.549L101.487 155.357C105.688 169.982 114.961 182.631 127.643 191.036L154.65 208.935L228.096 257.611L212.953 209.862L155.15 171.553C142.468 163.148 133.195 150.499 128.994 135.874L108.952 66.0965L66.9834 35.2313Z" fill="#0D0D0D" fill-opacity="0.5"/>
<path d="M19.8149 69.4142L20.1111 69.0114C19.9337 68.8809 19.6919 68.8819 19.5155 69.0137L19.8149 69.4142ZM180.927 291.794L181.227 292.195L181.511 291.982L181.404 291.643L180.927 291.794ZM30.4337 106.384L30.9143 106.246L30.4337 106.384ZM157.828 304.216L157.552 304.633L157.828 304.216ZM164.574 304.021L164.874 304.421L164.574 304.021ZM1.26965 88.0006L0.789116 88.1387L1.26965 88.0006ZM3.3924 81.6928L3.09305 81.2923L3.3924 81.6928ZM66.9834 35.2313L67.2796 34.8285C67.1022 34.698 66.8604 34.699 66.684 34.8308L66.9834 35.2313ZM228.096 257.611L228.395 258.012L228.68 257.799L228.572 257.46L228.096 257.611ZM77.6022 72.2008L78.0828 72.0627L77.6022 72.2008ZM204.997 270.033L205.273 269.617L204.997 270.033ZM211.743 269.838L212.042 270.238L211.743 269.838ZM48.4381 53.8177L47.9576 53.9558L48.4381 53.8177ZM50.5609 47.5099L50.2615 47.1094L50.5609 47.5099ZM114.152 1.04844L114.448 0.645597C114.271 0.515149 114.029 0.516106 113.852 0.647954L114.152 1.04844ZM275.264 223.429L275.563 223.829L275.849 223.616L275.74 223.276L275.264 223.429ZM124.771 38.0179L125.251 37.8798L124.771 38.0179ZM252.165 235.851L252.441 235.434L252.165 235.851ZM258.911 235.655L259.211 236.056L258.911 235.655ZM95.6066 19.6348L96.0871 19.4967L95.6066 19.6348ZM97.7293 13.327L97.43 12.9265L97.7293 13.327ZM139.232 88.3657L138.752 88.5038L139.232 88.3657ZM201.818 174.752L202.094 174.335L201.818 174.752ZM92.0638 122.549L92.5443 122.411L92.0638 122.549ZM61.7834 100.279L62.264 100.141L61.7834 100.279ZM154.65 208.935L154.926 208.518L154.65 208.935ZM232.371 88.5049C232.583 88.3279 232.612 88.0125 232.435 87.8005C232.258 87.5886 231.942 87.5602 231.73 87.7372L232.051 88.121L232.371 88.5049ZM148.656 121.174L148.175 121.312L148.656 121.174ZM155.15 171.553L154.874 171.97L155.15 171.553ZM101.487 155.357L101.007 155.495L101.487 155.357ZM1.26965 88.0006L0.789116 88.1387L34.1769 204.378L34.6574 204.24L35.1379 204.102L1.75019 87.8625L1.26965 88.0006ZM60.8133 239.919L60.5371 240.336L157.552 304.633L157.828 304.216L158.104 303.799L61.0895 239.502L60.8133 239.919ZM180.927 291.794L180.628 291.394L164.275 303.62L164.574 304.021L164.874 304.421L181.227 292.195L180.927 291.794ZM19.8149 69.4142L19.5155 69.0137C14.3331 72.8885 7.18954 78.2295 3.09305 81.2923L3.3924 81.6928L3.69174 82.0933C7.78823 79.0305 14.9318 73.6895 20.1142 69.8147L19.8149 69.4142ZM19.8149 69.4142L19.3344 69.5523C21.4078 76.7711 24.0625 86.0134 26.1989 93.4511C27.2671 97.1699 28.2056 100.438 28.8772 102.776C29.2129 103.945 29.4819 104.881 29.667 105.525C29.7595 105.848 29.8311 106.097 29.8795 106.265C29.9037 106.349 29.9221 106.414 29.9345 106.457C29.9407 106.478 29.9454 106.494 29.9485 106.505C29.95 106.511 29.9513 106.515 29.952 106.518C29.9524 106.519 29.9527 106.52 29.9529 106.521C29.953 106.521 29.9531 106.521 29.9531 106.522C29.9532 106.522 29.9532 106.522 30.4337 106.384C30.9143 106.246 30.9142 106.246 30.9142 106.245C30.9141 106.245 30.9141 106.245 30.914 106.245C30.9138 106.244 30.9135 106.243 30.9131 106.241C30.9123 106.239 30.9111 106.235 30.9096 106.229C30.9064 106.218 30.9018 106.202 30.8956 106.181C30.8832 106.137 30.8648 106.073 30.8406 105.989C30.7922 105.82 30.7206 105.571 30.6281 105.249C30.443 104.605 30.174 103.668 29.8382 102.499C29.1667 100.161 28.2281 96.8938 27.1599 93.1749C25.0236 85.7373 22.3689 76.4949 20.2954 69.2762L19.8149 69.4142ZM30.4337 106.384L29.9532 106.522L53.8384 189.678L54.3189 189.54L54.7994 189.402L30.9143 106.246L30.4337 106.384ZM157.828 304.216L157.552 304.633C159.79 306.116 162.721 306.031 164.874 304.421L164.574 304.021L164.275 303.62C162.46 304.978 159.989 305.049 158.104 303.799L157.828 304.216ZM1.26965 88.0006L1.75019 87.8625C1.13574 85.7234 1.90611 83.4283 3.69174 82.0933L3.3924 81.6928L3.09305 81.2923C0.974401 82.8763 0.0599954 85.6002 0.789116 88.1387L1.26965 88.0006ZM228.096 257.611L227.796 257.211L211.444 269.437L211.743 269.838L212.042 270.238L228.395 258.012L228.096 257.611ZM66.9834 35.2313L66.684 34.8308C61.5016 38.7056 54.358 44.0466 50.2615 47.1094L50.5609 47.5099L50.8602 47.9104C54.9567 44.8476 62.1003 39.5065 67.2827 35.6318L66.9834 35.2313ZM66.9834 35.2313L66.5029 35.3694C68.5763 42.5881 71.231 51.8305 73.3674 59.2682C74.4355 62.987 75.3741 66.2547 76.0457 68.5927C76.3814 69.7616 76.6504 70.6982 76.8355 71.3425C76.928 71.6646 76.9996 71.9137 77.048 72.0823C77.0722 72.1666 77.0906 72.2307 77.103 72.2738C77.1092 72.2953 77.1139 72.3116 77.117 72.3225C77.1185 72.3278 77.1197 72.3321 77.1205 72.3348C77.1209 72.336 77.1212 72.3372 77.1214 72.3378C77.1215 72.3382 77.1216 72.3384 77.1216 72.3386C77.1217 72.3388 77.1217 72.3389 77.6022 72.2008C78.0828 72.0627 78.0827 72.0626 78.0827 72.0624C78.0826 72.0623 78.0826 72.062 78.0825 72.0617C78.0823 72.0611 78.0819 72.0598 78.0816 72.0586C78.0807 72.0557 78.0797 72.0519 78.0781 72.0463C78.0749 72.0354 78.0703 72.0192 78.0641 71.9976C78.0517 71.9545 78.0333 71.8904 78.0091 71.8061C77.9607 71.6376 77.8891 71.3885 77.7966 71.0663C77.6115 70.422 77.3425 69.4855 77.0067 68.3165C76.3352 65.9785 75.3966 62.7109 74.3284 58.992C72.1921 51.5543 69.5374 42.312 67.4639 35.0932L66.9834 35.2313ZM204.997 270.033L204.72 270.45C206.958 271.933 209.889 271.848 212.042 270.238L211.743 269.838L211.444 269.437C209.628 270.795 207.158 270.866 205.273 269.617L204.997 270.033ZM48.4381 53.8177L48.9187 53.6796C48.3042 51.5405 49.0746 49.2454 50.8602 47.9104L50.5609 47.5099L50.2615 47.1094C48.1429 48.6934 47.2285 51.4174 47.9576 53.9558L48.4381 53.8177ZM275.264 223.429L275.74 223.276L232.526 87.9696L232.05 88.1218L231.574 88.274L274.788 223.581L275.264 223.429ZM232.05 88.1218L232.346 87.719C227.081 83.8467 208.164 69.8428 185.283 52.9238C162.403 36.0054 135.561 16.173 114.448 0.645597L114.152 1.04844L113.856 1.45129C134.968 16.9779 161.809 36.8095 184.689 53.7279C207.568 70.6457 226.487 84.6514 231.754 88.5246L232.05 88.1218ZM275.264 223.429L274.965 223.028L258.612 235.255L258.911 235.655L259.211 236.056L275.563 223.829L275.264 223.429ZM114.152 1.04844L113.852 0.647954C108.67 4.52269 101.526 9.86369 97.43 12.9265L97.7293 13.327L98.0287 13.7275C102.125 10.6647 109.269 5.32367 114.451 1.44893L114.152 1.04844ZM114.152 1.04844L113.671 1.18652C115.745 8.40526 118.399 17.6476 120.536 25.0853C121.604 28.8041 122.543 32.0718 123.214 34.4098C123.55 35.5788 123.819 36.5153 124.004 37.1596C124.096 37.4818 124.168 37.7309 124.216 37.8994C124.241 37.9837 124.259 38.0478 124.271 38.0909C124.278 38.1125 124.282 38.1287 124.285 38.1396C124.287 38.145 124.288 38.1492 124.289 38.1519C124.289 38.1532 124.29 38.1543 124.29 38.155C124.29 38.1553 124.29 38.1556 124.29 38.1557C124.29 38.1559 124.29 38.156 124.771 38.0179C125.251 37.8798 125.251 37.8797 125.251 37.8796C125.251 37.8794 125.251 37.8791 125.251 37.8788C125.251 37.878 125.25 37.8772 125.25 37.8757C125.249 37.873 125.248 37.8689 125.247 37.8634C125.243 37.8525 125.239 37.8363 125.233 37.8147C125.22 37.7717 125.202 37.7075 125.178 37.6233C125.129 37.4547 125.058 37.2056 124.965 36.8834C124.78 36.2391 124.511 35.3026 124.175 34.1336C123.504 31.7957 122.565 28.528 121.497 24.8091C119.361 17.3715 116.706 8.1291 114.632 0.910363L114.152 1.04844ZM252.165 235.851L251.889 236.267C254.127 237.751 257.058 237.665 259.211 236.056L258.911 235.655L258.612 235.255C256.797 236.612 254.326 236.683 252.441 235.434L252.165 235.851ZM95.6066 19.6348L96.0871 19.4967C95.4727 17.3576 96.2431 15.0625 98.0287 13.7275L97.7293 13.327L97.43 12.9265C95.3113 14.5105 94.3969 17.2345 95.1261 19.7729L95.6066 19.6348ZM80.4748 225.219L80.1986 225.636L180.651 292.211L180.927 291.794L181.203 291.378L80.751 224.802L80.4748 225.219ZM124.771 38.0179L124.29 38.156L138.752 88.5038L139.232 88.3657L139.713 88.2276L125.251 37.8798L124.771 38.0179ZM139.232 88.3657L138.752 88.5038L148.175 121.312L148.656 121.174L149.136 121.036L139.713 88.2276L139.232 88.3657ZM108.952 66.0965L109.248 65.6936C94.6596 54.9647 79.9883 44.1749 67.2796 34.8285L66.9834 35.2313L66.6872 35.6342C79.3959 44.9806 94.0672 55.7704 108.656 66.4993L108.952 66.0965ZM95.6066 19.6348L95.1261 19.7729L108.471 66.2346L108.952 66.0965L109.432 65.9584L96.0871 19.4967L95.6066 19.6348ZM174.812 156.853L174.536 157.27L201.542 175.169L201.818 174.752L202.094 174.335L175.088 156.436L174.812 156.853ZM201.818 174.752L201.542 175.169L274.988 223.845L275.264 223.429L275.54 223.012L202.094 174.335L201.818 174.752ZM228.096 257.611L228.572 257.46L213.429 209.711L212.953 209.862L212.476 210.014L227.619 257.763L228.096 257.611ZM212.953 209.862L212.677 210.279L251.889 236.267L252.165 235.851L252.441 235.434L213.229 209.446L212.953 209.862ZM155.15 171.553L154.874 171.97L212.677 210.279L212.953 209.862L213.229 209.446L155.426 171.137L155.15 171.553ZM108.952 66.0965L108.471 66.2346L128.514 136.012L128.994 135.874L129.475 135.736L109.432 65.9584L108.952 66.0965ZM77.6022 72.2008L77.1217 72.3389L91.5832 122.687L92.0638 122.549L92.5443 122.411L78.0828 72.0627L77.6022 72.2008ZM92.0638 122.549L91.5832 122.687L101.007 155.495L101.487 155.357L101.968 155.219L92.5443 122.411L92.0638 122.549ZM61.7834 100.279L62.0796 99.8765C47.4911 89.1476 32.8198 78.3578 20.1111 69.0114L19.8149 69.4142L19.5187 69.8171C32.2274 79.1635 46.8987 89.9533 61.4872 100.682L61.7834 100.279ZM48.4381 53.8177L47.9576 53.9558L61.3029 100.417L61.7834 100.279L62.264 100.141L48.9187 53.6796L48.4381 53.8177ZM61.7834 100.279L61.3029 100.417L81.3453 170.195L81.8259 170.057L82.3064 169.919L62.264 100.141L61.7834 100.279ZM127.643 191.036L127.367 191.453L154.373 209.352L154.65 208.935L154.926 208.518L127.92 190.619L127.643 191.036ZM154.65 208.935L154.373 209.352L227.819 258.028L228.096 257.611L228.372 257.195L154.926 208.518L154.65 208.935ZM180.927 291.794L181.404 291.643L166.261 243.894L165.784 244.045L165.308 244.197L180.451 291.946L180.927 291.794ZM107.982 205.736L107.706 206.153L165.508 244.462L165.784 244.045L166.061 243.629L108.258 205.32L107.982 205.736ZM165.784 244.045L165.508 244.462L204.72 270.45L204.997 270.033L205.273 269.617L166.061 243.629L165.784 244.045ZM19.8149 69.4142L19.3344 69.5523L29.9532 106.522L30.4337 106.384L30.9143 106.246L20.2954 69.2762L19.8149 69.4142ZM61.7834 100.279L62.0796 99.8765L20.1111 69.0114L19.8149 69.4142L19.5187 69.8171L61.4872 100.682L61.7834 100.279ZM19.8149 69.4142L19.5155 69.0137L3.09305 81.2923L3.3924 81.6928L3.69174 82.0933L20.1142 69.8147L19.8149 69.4142ZM77.6022 72.2008L78.0828 72.0627L67.4639 35.0932L66.9834 35.2313L66.5029 35.3694L77.1217 72.3389L77.6022 72.2008ZM66.9834 35.2313L66.684 34.8308L50.2615 47.1094L50.5609 47.5099L50.8602 47.9104L67.2827 35.6318L66.9834 35.2313ZM114.152 1.04844L113.852 0.647954L97.43 12.9265L97.7293 13.327L98.0287 13.7275L114.451 1.44893L114.152 1.04844ZM124.771 38.0179L125.251 37.8798L114.632 0.910363L114.152 1.04844L113.671 1.18652L124.29 38.156L124.771 38.0179ZM108.952 66.0965L109.248 65.6936L67.2796 34.8285L66.9834 35.2313L66.6872 35.6342L108.656 66.4993L108.952 66.0965ZM232.05 88.1218L232.37 88.5056L232.371 88.5049L232.051 88.121L231.73 87.7372L231.729 87.738L232.05 88.1218ZM148.656 121.174L148.175 121.312C152.409 136.051 161.754 148.799 174.536 157.27L174.812 156.853L175.088 156.436C162.505 148.097 153.304 135.546 149.136 121.036L148.656 121.174ZM54.3189 189.54L53.8384 189.678C58.0719 204.417 67.4173 217.165 80.1986 225.636L80.4748 225.219L80.751 224.802C68.1679 216.463 58.9673 203.912 54.7994 189.402L54.3189 189.54ZM81.8259 170.057L81.3453 170.195C85.5788 184.934 94.9243 197.682 107.706 206.153L107.982 205.736L108.258 205.32C95.6748 196.98 86.4742 184.43 82.3064 169.919L81.8259 170.057ZM155.15 171.553L155.426 171.137C142.843 162.797 133.643 150.247 129.475 135.736L128.994 135.874L128.514 136.012C132.747 150.751 142.093 163.499 154.874 171.97L155.15 171.553ZM101.487 155.357L101.007 155.495C105.24 170.234 114.586 182.982 127.367 191.453L127.643 191.036L127.92 190.619C115.336 182.28 106.136 169.729 101.968 155.219L101.487 155.357ZM34.6574 204.24L34.1769 204.378C38.4104 219.117 47.7558 231.865 60.5371 240.336L60.8133 239.919L61.0895 239.502C48.5064 231.163 39.3058 218.612 35.1379 204.102L34.6574 204.24Z" fill="#797979" fill-opacity="0.1"/>
</svg>
