<svg width="161" height="125" viewBox="0 0 161 125" fill="none" xmlns="http://www.w3.org/2000/svg">
<g opacity="0.2">
<path d="M121.653 107.191C108.971 98.7863 99.6981 86.137 95.4974 71.5123L91.6094 57.9759L82.1726 25.1219C82.1726 25.1219 77.9494 10.4188 75.2433 0.997713C102.797 21.2618 145.304 52.7625 152.177 57.8168L180.376 146.11L132.449 114.347L121.653 107.191Z" fill="#121212" fill-opacity="0.3"/>
<path d="M13.6845 45.6093L20.6137 69.7334L33.9386 116.124C38.1393 130.749 47.4123 143.398 60.0945 151.803L118.817 190.722L108.936 159.563L78.044 139.09C65.3618 130.685 56.0887 118.035 51.888 103.411L41.0707 65.7501L13.6845 45.6093Z" fill="#121212" fill-opacity="0.3"/>
<path d="M44.4639 23.3035L51.3932 47.4276L60.8299 80.2817L64.718 93.818C68.9187 108.443 78.1917 121.092 90.874 129.497L101.67 136.652L149.597 168.416L139.715 137.258L108.823 116.784C96.1412 108.379 86.8682 95.7295 82.6675 81.1048L71.8502 43.4443L44.4639 23.3035Z" fill="#0D0D0D" fill-opacity="0.5"/>
<path d="M13.6845 45.6093L13.9807 45.2064C13.8033 45.076 13.5615 45.077 13.3851 45.2088L13.6845 45.6093ZM118.817 190.722L119.116 191.122L119.401 190.909L119.294 190.571L118.817 190.722ZM20.6137 69.7334L21.0943 69.5953L20.6137 69.7334ZM103.744 198.828L103.468 199.244L103.744 198.828ZM108.146 198.7L108.446 199.101L108.146 198.7ZM1.58293 57.7377L1.1024 57.8758L1.58293 57.7377ZM2.96811 53.6216L2.66877 53.2211L2.96811 53.6216ZM44.4639 23.3035L44.7601 22.9006C44.5828 22.7702 44.3409 22.7712 44.1646 22.903L44.4639 23.3035ZM149.597 168.416L149.896 168.816L150.181 168.604L150.073 168.265L149.597 168.416ZM51.3932 47.4276L51.8737 47.2896L51.3932 47.4276ZM134.523 176.522L134.8 176.105L134.523 176.522ZM138.926 176.394L139.225 176.795L138.926 176.394ZM32.3624 35.4319L31.8818 35.57L31.8818 35.57L32.3624 35.4319ZM33.7475 31.3158L33.4482 30.9153L33.7475 31.3158ZM75.2433 0.997713L75.5395 0.594866C75.3622 0.464419 75.1203 0.465377 74.944 0.597225L75.2433 0.997713ZM180.376 146.11L180.675 146.511L180.961 146.297L180.852 145.958L180.376 146.11ZM82.1726 25.1219L82.6531 24.9838L82.1726 25.1219ZM165.303 154.216L165.579 153.799L165.303 154.216ZM169.705 154.088L170.004 154.489L169.705 154.088ZM63.1418 13.1261L63.6223 12.988L63.1418 13.1261ZM64.527 9.00998L64.2276 8.60949L64.527 9.00998ZM91.6094 57.9759L91.1288 58.114L91.6094 57.9759ZM132.449 114.347L132.726 113.93L132.449 114.347ZM60.8299 80.2817L61.3105 80.1436L61.3105 80.1436L60.8299 80.2817ZM41.0707 65.7501L41.5513 65.612L41.0707 65.7501ZM101.67 136.652L101.946 136.235L101.67 136.652ZM152.498 58.2001C152.71 58.0231 152.738 57.7078 152.561 57.4958C152.384 57.2838 152.069 57.2554 151.857 57.4324L152.177 57.8163L152.498 58.2001ZM121.653 107.191L121.93 106.775L121.653 107.191ZM33.9386 116.124L33.458 116.262L33.9386 116.124ZM60.0945 151.803L60.3707 151.386L60.0945 151.803ZM51.888 103.411L51.4075 103.549L51.888 103.411ZM90.874 129.497L91.1502 129.08L90.874 129.497ZM21.1086 125.716L20.6281 125.854L21.1086 125.716ZM47.2646 161.396L47.5408 160.979L47.2646 161.396ZM1.58293 57.7377L1.1024 57.8758L20.6281 125.854L21.1086 125.716L21.5892 125.578L2.06347 57.5996L1.58293 57.7377ZM47.2646 161.396L46.9884 161.812L103.468 199.244L103.744 198.828L104.02 198.411L47.5408 160.979L47.2646 161.396ZM118.817 190.722L118.518 190.321L107.847 198.3L108.146 198.7L108.446 199.101L119.116 191.122L118.817 190.722ZM13.6845 45.6093L13.3851 45.2088C10.0034 47.7372 5.34191 51.2225 2.66877 53.2211L2.96811 53.6216L3.26747 54.022C5.9406 52.0234 10.6021 48.5382 13.9838 46.0098L13.6845 45.6093ZM13.6845 45.6093L13.204 45.7474C14.557 50.4579 16.2893 56.4889 17.6833 61.3423C18.3804 63.769 18.9928 65.9013 19.431 67.4269C19.6502 68.1898 19.8257 68.8009 19.9464 69.2213C20.0068 69.4316 20.0535 69.5941 20.0851 69.7041C20.1009 69.7591 20.1129 69.8009 20.121 69.829C20.125 69.8431 20.1281 69.8537 20.1301 69.8608C20.1312 69.8644 20.1319 69.867 20.1324 69.8688C20.1327 69.8696 20.1329 69.8705 20.133 69.8708C20.1331 69.8711 20.1331 69.8712 20.1332 69.8713C20.1332 69.8715 20.1332 69.8715 20.6137 69.7334C21.0943 69.5953 21.0943 69.5953 21.0942 69.5952C21.0942 69.5951 21.0941 69.5949 21.0941 69.5947C21.0939 69.5942 21.0938 69.5936 21.0935 69.5927C21.093 69.5908 21.0922 69.5882 21.0912 69.5847C21.0892 69.5775 21.0861 69.567 21.0821 69.5529C21.074 69.5248 21.062 69.4829 21.0462 69.4279C21.0146 69.3179 20.9679 69.1554 20.9075 68.9452C20.7868 68.5247 20.6112 67.9136 20.3921 67.1508C19.9539 65.6252 19.3414 63.4929 18.6444 61.0662C17.2504 56.2128 15.518 50.1817 14.165 45.4712L13.6845 45.6093ZM20.6137 69.7334L20.1332 69.8715L33.458 116.262L33.9386 116.124L34.4191 115.986L21.0943 69.5953L20.6137 69.7334ZM103.744 198.828L103.468 199.244C104.989 200.253 106.982 200.195 108.446 199.101L108.146 198.7L107.847 198.3C106.721 199.141 105.189 199.185 104.02 198.411L103.744 198.828ZM1.58293 57.7377L2.06347 57.5996C1.68244 56.2731 2.16011 54.85 3.26747 54.022L2.96811 53.6216L2.66877 53.2211C1.22841 54.298 0.606696 56.15 1.1024 57.8758L1.58293 57.7377ZM149.597 168.416L149.297 168.015L138.626 175.994L138.926 176.394L139.225 176.795L149.896 168.816L149.597 168.416ZM44.4639 23.3035L44.1646 22.903C40.7828 25.4314 36.1213 28.9167 33.4482 30.9153L33.7475 31.3158L34.0469 31.7163C36.72 29.7176 41.3815 26.2324 44.7633 23.704L44.4639 23.3035ZM44.4639 23.3035L43.9834 23.4416C45.3364 28.1521 47.0687 34.1831 48.4628 39.0365C49.1598 41.4632 49.7723 43.5955 50.2105 45.1211C50.4296 45.884 50.6051 46.4951 50.7259 46.9155C50.7863 47.1258 50.833 47.2883 50.8645 47.3983C50.8803 47.4532 50.8924 47.4952 50.9004 47.5232C50.9045 47.5373 50.9075 47.5479 50.9096 47.555C50.9105 47.5583 50.9114 47.5615 50.9119 47.563C50.9121 47.5639 50.9123 47.5646 50.9124 47.565C50.9125 47.5653 50.9126 47.5654 50.9126 47.5655C50.9126 47.5657 50.9126 47.5657 51.3932 47.4276C51.8737 47.2896 51.8737 47.2895 51.8737 47.2894C51.8736 47.2893 51.8736 47.2891 51.8735 47.2889C51.8734 47.2886 51.8731 47.2876 51.8729 47.2869C51.8724 47.2849 51.8717 47.2826 51.8706 47.2789C51.8686 47.2718 51.8655 47.2611 51.8615 47.2471C51.8534 47.219 51.8414 47.1771 51.8256 47.1221C51.794 47.0121 51.7473 46.8496 51.687 46.6394C51.5662 46.2189 51.3907 45.6078 51.1716 44.845C50.7333 43.3194 50.1209 41.1871 49.4238 38.7604C48.0298 33.907 46.2975 27.8759 44.9445 23.1654L44.4639 23.3035ZM134.523 176.522L134.247 176.939C135.769 177.947 137.761 177.889 139.225 176.795L138.926 176.394L138.626 175.994C137.5 176.836 135.968 176.88 134.8 176.105L134.523 176.522ZM32.3624 35.4319L32.8429 35.2938C32.4619 33.9673 32.9395 32.5442 34.0469 31.7163L33.7475 31.3158L33.4482 30.9153C32.0078 31.9922 31.3861 33.8442 31.8818 35.57L32.3624 35.4319ZM180.376 146.11L180.852 145.958L152.653 57.6646L152.177 57.8168L151.701 57.9689L179.9 146.262L180.376 146.11ZM152.177 57.8168L152.473 57.4139C149.037 54.8873 136.694 45.7494 121.763 34.7088C106.833 23.6689 89.317 10.7273 75.5395 0.594866L75.2433 0.997713L74.9472 1.40056C88.7235 11.5322 106.238 24.473 121.168 35.513C136.098 46.5524 148.444 55.692 151.881 58.2196L152.177 57.8168ZM180.376 146.11L180.077 145.71L169.406 153.688L169.705 154.088L170.004 154.489L180.675 146.511L180.376 146.11ZM75.2433 0.997713L74.944 0.597225C71.5622 3.12565 66.9008 6.61088 64.2276 8.60949L64.527 9.00998L64.8263 9.41047C67.4995 7.41186 72.1609 3.92663 75.5427 1.3982L75.2433 0.997713ZM75.2433 0.997713L74.7628 1.13579C76.1158 5.84632 77.8481 11.8774 79.2422 16.7308C79.9392 19.1575 80.5517 21.2898 80.9899 22.8154C81.209 23.5782 81.3845 24.1893 81.5053 24.6098C81.5657 24.82 81.6124 24.9825 81.644 25.0925C81.6598 25.1475 81.6718 25.1894 81.6799 25.2175C81.6839 25.2315 81.6869 25.2421 81.689 25.2492C81.69 25.2527 81.6908 25.2555 81.6913 25.2572C81.6916 25.2583 81.6917 25.2587 81.6919 25.2593C81.6919 25.2595 81.692 25.2596 81.692 25.2598C81.692 25.2599 81.6921 25.2599 82.1726 25.1219C82.6531 24.9838 82.6531 24.9837 82.6531 24.9836C82.653 24.9835 82.653 24.9833 82.6529 24.9831C82.6528 24.9828 82.6526 24.9819 82.6524 24.9811C82.6518 24.9793 82.6511 24.9766 82.6501 24.9731C82.648 24.966 82.645 24.9553 82.6409 24.9413C82.6329 24.9132 82.6208 24.8713 82.605 24.8163C82.5734 24.7064 82.5268 24.5438 82.4664 24.3336C82.3456 23.9132 82.1701 23.302 81.951 22.5392C81.5128 21.0136 80.9003 18.8813 80.2033 16.4546C78.8092 11.6012 77.0769 5.57017 75.7239 0.859634L75.2433 0.997713ZM165.303 154.216L165.027 154.633C166.548 155.641 168.541 155.583 170.004 154.489L169.705 154.088L169.406 153.688C168.28 154.53 166.748 154.574 165.579 153.799L165.303 154.216ZM63.1418 13.1261L63.6223 12.988C63.2413 11.6615 63.719 10.2384 64.8263 9.41047L64.527 9.00998L64.2276 8.60949C62.7873 9.6864 62.1656 11.5384 62.6613 13.2642L63.1418 13.1261ZM60.0945 151.803L59.8183 152.22L118.541 191.139L118.817 190.722L119.093 190.305L60.3707 151.386L60.0945 151.803ZM82.1726 25.1219L81.6921 25.2599L91.1288 58.114L91.6094 57.9759L92.0899 57.8379L82.6531 24.9838L82.1726 25.1219ZM91.6094 57.9759L91.1288 58.114L95.0169 71.6504L95.4974 71.5123L95.978 71.3742L92.0899 57.8379L91.6094 57.9759ZM71.8502 43.4443L72.1464 43.0415C62.6267 36.0404 53.0531 28.9996 44.7601 22.9006L44.4639 23.3035L44.1677 23.7063C52.4607 29.8053 62.0343 36.8461 71.554 43.8472L71.8502 43.4443ZM63.1418 13.1261L62.6613 13.2642L71.3696 43.5824L71.8502 43.4443L72.3307 43.3062L63.6223 12.988L63.1418 13.1261ZM121.653 107.191L121.377 107.608L132.173 114.763L132.449 114.347L132.726 113.93L121.93 106.775L121.653 107.191ZM132.449 114.347L132.173 114.763L180.1 146.527L180.376 146.11L180.652 145.693L132.726 113.93L132.449 114.347ZM149.597 168.416L150.073 168.265L140.192 137.107L139.715 137.258L139.239 137.409L149.12 168.567L149.597 168.416ZM139.715 137.258L139.439 137.675L165.027 154.633L165.303 154.216L165.579 153.799L139.991 136.841L139.715 137.258ZM108.823 116.784L108.547 117.201L139.439 137.675L139.715 137.258L139.991 136.841L109.1 116.367L108.823 116.784ZM71.8502 43.4443L71.3696 43.5824L82.1869 81.2429L82.6675 81.1048L83.148 80.9667L72.3307 43.3062L71.8502 43.4443ZM51.3932 47.4276L50.9126 47.5657L60.3494 80.4198L60.8299 80.2817L61.3105 80.1436L51.8737 47.2896L51.3932 47.4276ZM60.8299 80.2817L60.3494 80.4198L64.2375 93.9561L64.718 93.818L65.1985 93.6799L61.3105 80.1436L60.8299 80.2817ZM41.0707 65.7501L41.3669 65.3473C31.8473 58.3462 22.2737 51.3054 13.9807 45.2064L13.6845 45.6093L13.3883 46.0121C21.6812 52.1111 31.2549 59.1519 40.7745 66.1529L41.0707 65.7501ZM32.3624 35.4319L31.8818 35.57L40.5902 65.8882L41.0707 65.7501L41.5513 65.612L32.8429 35.2938L32.3624 35.4319ZM41.0707 65.7501L40.5902 65.8882L51.4075 103.549L51.888 103.411L52.3686 103.272L41.5513 65.612L41.0707 65.7501ZM90.874 129.497L90.5978 129.914L101.394 137.069L101.67 136.652L101.946 136.235L91.1502 129.08L90.874 129.497ZM101.67 136.652L101.394 137.069L149.32 168.833L149.597 168.416L149.873 167.999L101.946 136.235L101.67 136.652ZM118.817 190.722L119.294 190.571L109.412 159.412L108.936 159.563L108.459 159.715L118.341 190.873L118.817 190.722ZM78.044 139.09L77.7678 139.507L108.66 159.98L108.936 159.563L109.212 159.147L78.3202 138.673L78.044 139.09ZM108.936 159.563L108.66 159.98L134.247 176.939L134.523 176.522L134.8 176.105L109.212 159.147L108.936 159.563ZM13.6845 45.6093L13.204 45.7474L20.1332 69.8715L20.6137 69.7334L21.0943 69.5953L14.165 45.4712L13.6845 45.6093ZM41.0707 65.7501L41.3669 65.3473L13.9807 45.2064L13.6845 45.6093L13.3883 46.0121L40.7745 66.1529L41.0707 65.7501ZM13.6845 45.6093L13.3851 45.2088L2.66877 53.2211L2.96811 53.6216L3.26747 54.022L13.9838 46.0098L13.6845 45.6093ZM51.3932 47.4276L51.8737 47.2896L44.9445 23.1654L44.4639 23.3035L43.9834 23.4416L50.9126 47.5657L51.3932 47.4276ZM44.4639 23.3035L44.1646 22.903L33.4482 30.9153L33.7475 31.3158L34.0469 31.7163L44.7633 23.704L44.4639 23.3035ZM75.2433 0.997713L74.944 0.597225L64.2276 8.60949L64.527 9.00998L64.8263 9.41047L75.5427 1.3982L75.2433 0.997713ZM82.1726 25.1219L82.6531 24.9838L75.7239 0.859634L75.2433 0.997713L74.7628 1.13579L81.6921 25.2599L82.1726 25.1219ZM71.8502 43.4443L72.1464 43.0415L44.7601 22.9006L44.4639 23.3035L44.1677 23.7063L71.554 43.8472L71.8502 43.4443ZM152.177 57.8168L152.497 58.2006L152.498 58.2001L152.177 57.8163L151.857 57.4324L151.856 57.4329L152.177 57.8168ZM95.4974 71.5123L95.0169 71.6504C99.2504 86.3893 108.596 99.1374 121.377 107.608L121.653 107.191L121.93 106.775C109.346 98.4351 100.146 85.8846 95.978 71.3742L95.4974 71.5123ZM33.9386 116.124L33.458 116.262C37.6915 131.001 47.037 143.749 59.8183 152.22L60.0945 151.803L60.3707 151.386C47.7876 143.047 38.587 130.496 34.4191 115.986L33.9386 116.124ZM51.888 103.411L51.4075 103.549C55.641 118.288 64.9865 131.036 77.7678 139.507L78.044 139.09L78.3202 138.673C65.737 130.333 56.5364 117.783 52.3686 103.272L51.888 103.411ZM108.823 116.784L109.1 116.367C96.5165 108.028 87.3159 95.4772 83.148 80.9667L82.6675 81.1048L82.1869 81.2429C86.4205 95.9818 95.7659 108.73 108.547 117.201L108.823 116.784ZM64.718 93.818L64.2375 93.9561C68.471 108.695 77.8165 121.443 90.5978 129.914L90.874 129.497L91.1502 129.08C78.567 120.741 69.3664 108.19 65.1985 93.6799L64.718 93.818ZM21.1086 125.716L20.6281 125.854C24.8616 140.593 34.2071 153.342 46.9884 161.812L47.2646 161.396L47.5408 160.979C34.9576 152.639 25.757 140.089 21.5892 125.578L21.1086 125.716Z" fill="#F2F2F2" fill-opacity="0.1"/>
</g>
</svg>
